<svg width="32" height="32" viewBox="0 0 32 32" fill="none" xmlns="http://www.w3.org/2000/svg">
<path d="M22.6667 29.3333H9.33334C8.78668 29.3333 8.33334 28.88 8.33334 28.3333C8.33334 27.7867 8.78668 27.3333 9.33334 27.3333H22.6667C23.2133 27.3333 23.6667 27.7867 23.6667 28.3333C23.6667 28.88 23.2133 29.3333 22.6667 29.3333Z" fill="#7D8592"/>
<path d="M27.1333 7.36L21.8 11.1733C21.0933 11.68 20.08 11.3733 19.7733 10.56L17.2533 3.84C16.8267 2.68 15.1867 2.68 14.76 3.84L12.2267 10.5467C11.92 11.3733 10.92 11.68 10.2133 11.16L4.87999 7.34667C3.81332 6.6 2.39999 7.65333 2.83999 8.89333L8.38665 24.4267C8.57332 24.96 9.07999 25.3067 9.63999 25.3067H22.3467C22.9067 25.3067 23.4133 24.9467 23.6 24.4267L29.1467 8.89333C29.6 7.65333 28.1867 6.6 27.1333 7.36ZM19.3333 19.6667H12.6667C12.12 19.6667 11.6667 19.2133 11.6667 18.6667C11.6667 18.12 12.12 17.6667 12.6667 17.6667H19.3333C19.88 17.6667 20.3333 18.12 20.3333 18.6667C20.3333 19.2133 19.88 19.6667 19.3333 19.6667Z" fill="#7D8592"/>
</svg>
