<svg width="17" height="16" viewBox="0 0 17 16" fill="none" xmlns="http://www.w3.org/2000/svg">
<path fill-rule="evenodd" clip-rule="evenodd" d="M7.75917 12.5467L3.13436 14.9133C2.7651 15.0926 2.31019 14.9657 2.10662 14.6267V14.6267C2.04773 14.5216 2.01595 14.4052 2.01384 14.2867V3.8C2.01384 1.8 3.47694 1 5.58237 1H10.5283C12.5695 1 14.0969 1.74667 14.0969 3.66667V14.2867C14.0969 14.4759 14.0164 14.6573 13.8732 14.7911C13.73 14.9248 13.5357 15 13.3332 15C13.204 14.9981 13.077 14.9684 12.9621 14.9133L8.30872 12.5467C8.13725 12.4601 7.93064 12.4601 7.75917 12.5467Z" stroke="black" stroke-width="1.5" stroke-linecap="round" stroke-linejoin="round"/>
</svg>
