<svg width="22" height="22" viewBox="0 0 22 22" fill="none" xmlns="http://www.w3.org/2000/svg">
<g clip-path="url(#clip0_36_9666)">
<path d="M0.708191 4H20.2918V18H0.708191V4Z" fill="#181A93"/>
<path d="M0 4H21V8.66667H0V4Z" fill="#FFA44A"/>
<path d="M0 13.3335H21V18.0002H0V13.3335Z" fill="#1A9F0B"/>
<path d="M0 8.6665H21V13.3332H0V8.6665Z" fill="white"/>
<path d="M10.5 12.4001C11.2732 12.4001 11.9 11.7733 11.9 11.0001C11.9 10.2269 11.2732 9.6001 10.5 9.6001C9.72678 9.6001 9.09998 10.2269 9.09998 11.0001C9.09998 11.7733 9.72678 12.4001 10.5 12.4001Z" fill="white"/>
<path d="M10.5 12.8666C9.47254 12.8666 8.63336 12.0275 8.63336 11C8.63336 9.97248 9.47254 9.1333 10.5 9.1333C11.5275 9.1333 12.3667 9.97248 12.3667 11C12.3667 12.0275 11.5275 12.8666 10.5 12.8666ZM10.5 12.4C11.2451 12.4 11.9 11.745 11.9 11C11.9 10.2549 11.2492 9.59997 10.5 9.59997C9.75091 9.59997 9.10003 10.2549 9.10003 11C9.10003 11.745 9.755 12.4 10.5 12.4Z" fill="#181A93"/>
<path d="M10.5 11.9336C11.0154 11.9336 11.4333 11.5157 11.4333 11.0002C11.4333 10.4848 11.0154 10.0669 10.5 10.0669C9.98452 10.0669 9.56665 10.4848 9.56665 11.0002C9.56665 11.5157 9.98452 11.9336 10.5 11.9336Z" fill="#181A93"/>
</g>
<defs>
<clipPath id="clip0_36_9666">
<rect width="21" height="14" fill="white" transform="translate(0 4)"/>
</clipPath>
</defs>
</svg>
