<svg width="333" height="66" viewBox="0 0 333 66" fill="none" xmlns="http://www.w3.org/2000/svg">
<path d="M84 39C84 35.134 87.134 32 91 32C94.866 32 98 35.134 98 39V51H84V39Z" fill="#E7E7E7"/>
<path d="M98 7C98 3.13401 101.134 0 105 0C108.866 0 112 3.13401 112 7V51H98V7Z" fill="#E7E7E7"/>
<path d="M112 20.5C112 16.3579 115.358 13 119.5 13C123.642 13 127 16.3579 127 20.5V51H112V20.5Z" fill="#E7E7E7"/>
<path d="M169 20.5C169 16.3579 172.358 13 176.5 13C180.642 13 184 16.3579 184 20.5V51H169V20.5Z" fill="#E7E7E7"/>
<path d="M127 29C127 25.134 130.134 22 134 22C137.866 22 141 25.134 141 29V51H127V29Z" fill="#E7E7E7"/>
<path d="M155 29C155 25.134 158.134 22 162 22C165.866 22 169 25.134 169 29V51H155V29Z" fill="#E7E7E7"/>
<path d="M141 33C141 29.134 144.134 26 148 26C151.866 26 155 29.134 155 33V51H141V33Z" fill="#E7E7E7"/>
<path d="M226 20.5C226 16.3579 229.358 13 233.5 13C237.642 13 241 16.3579 241 20.5V51H226V20.5Z" fill="#E7E7E7"/>
<path d="M184 29C184 25.134 187.134 22 191 22C194.866 22 198 25.134 198 29V51H184V29Z" fill="#E7E7E7"/>
<path d="M212 29C212 25.134 215.134 22 219 22C222.866 22 226 25.134 226 29V51H212V29Z" fill="#E7E7E7"/>
<path d="M198 33C198 29.134 201.134 26 205 26C208.866 26 212 29.134 212 33V51H198V33Z" fill="#E7E7E7"/>
<line opacity="0.2" x1="1.5" y1="49.5" x2="331.5" y2="49.5" stroke="#5669FF" stroke-width="3" stroke-linecap="round"/>
<line x1="80.5" y1="49.5" x2="241.5" y2="49.5" stroke="#5669FF" stroke-width="3" stroke-linecap="round"/>
<rect x="224.5" y="31.5" width="34" height="34" rx="8.5" fill="white" stroke="#5669FF"/>
<path d="M250 49L244 45L244 53L250 49Z" fill="#5E5F65"/>
<path d="M234 49L240 53L240 45L234 49Z" fill="#5E5F65"/>
<rect x="61.5" y="31.5" width="34" height="34" rx="8.5" fill="white" stroke="#5669FF"/>
<path d="M87 49L81 45L81 53L87 49Z" fill="#5E5F65"/>
<path d="M71 49L77 53L77 45L71 49Z" fill="#5E5F65"/>
</svg>
