<svg width="21" height="24" viewBox="0 0 21 24" fill="none" xmlns="http://www.w3.org/2000/svg">
<path opacity="0.4" fill-rule="evenodd" clip-rule="evenodd" d="M6.9379 3.59583H14.1043V1.92724H6.9379V3.59583ZM5.30792 1.9956V2.00391C4.7485 2.05479 4.19508 2.16589 3.65667 2.33306V2.32683C3.64066 2.33356 3.62559 2.33874 3.61113 2.34371C3.59214 2.35024 3.5742 2.3564 3.55659 2.36525C3.51356 2.37563 3.47153 2.3912 3.4315 2.41093C3.31341 2.44935 3.19532 2.49504 3.08423 2.54176C3.05471 2.55318 3.02519 2.56642 2.99567 2.57966L2.99567 2.57966C2.96614 2.5929 2.93662 2.60614 2.9071 2.61756C2.86657 2.63677 2.82429 2.65779 2.782 2.67882L2.78199 2.67883C2.73971 2.69985 2.69743 2.72087 2.65691 2.74008L2.45676 2.85533C2.41975 2.87421 2.38549 2.89634 2.35054 2.91893C2.32972 2.93238 2.30866 2.94599 2.28663 2.95917C1.9854 3.15333 1.70619 3.38073 1.45399 3.63927L1.43898 3.65484C1.40586 3.69346 1.37288 3.73092 1.34034 3.76788L1.34034 3.76788C1.28538 3.8303 1.2317 3.89127 1.18079 3.95388L1.16578 3.96842C0.347154 5.09811 -0.0631582 6.4905 0.00789578 7.90158V8.3491H1.62412V7.89743C1.62412 5.93085 2.2506 4.70666 3.64466 4.07952C4.17706 3.8542 4.73949 3.71507 5.31192 3.66419H5.32694V2.00287L5.30792 1.9956ZM19.831 3.94805L19.838 3.96259C20.6556 5.09332 21.0639 6.48675 20.9918 7.89783V8.3495H19.3766V7.88641C19.4107 7.05368 19.2435 6.2251 18.8893 5.47647C18.549 4.83582 18.0046 4.33846 17.3471 4.0685C16.8237 3.84318 16.2693 3.70301 15.7038 3.65317V2.00016C16.2633 2.05208 16.8167 2.16214 17.3561 2.32931V2.321C17.3864 2.33476 17.4095 2.34293 17.4492 2.35697L17.4562 2.35942C17.4746 2.36593 17.4918 2.37245 17.5088 2.37889C17.5324 2.38784 17.5556 2.39665 17.5813 2.40511C17.6919 2.44141 17.7954 2.4842 17.9019 2.52823L17.9205 2.53593C17.9697 2.55319 18.0159 2.57459 18.0576 2.59388C18.0711 2.60012 18.0842 2.60614 18.0967 2.61173C18.1847 2.65015 18.2748 2.69584 18.3468 2.73425C18.3949 2.75919 18.4417 2.78588 18.4856 2.81091C18.5093 2.82444 18.5322 2.83749 18.554 2.84951C18.5899 2.86931 18.621 2.8905 18.651 2.91087C18.6729 2.92575 18.6942 2.94019 18.7161 2.95334C19.0184 3.14854 19.3006 3.37698 19.5558 3.63344L19.5648 3.64902C19.6588 3.7435 19.7479 3.84318 19.831 3.94805Z" fill="#5669FF"/>
<path d="M15.7501 0.836415V4.5132C15.7501 4.97646 15.3742 5.35169 14.9101 5.35169C14.446 5.35169 14.0701 4.97646 14.0701 4.5132V0.8448C14.0659 0.381533 14.4397 0.00316412 14.9038 1.97829e-05C15.3679 -0.00312456 15.7469 0.368956 15.7501 0.832222V0.836415Z" fill="#5669FF"/>
<path d="M6.92999 0.849439V4.51713C6.92999 4.98241 6.55364 5.35965 6.08947 5.35965C5.6253 5.35965 5.24999 4.98241 5.24999 4.51713V0.849439C5.24999 0.384166 5.6253 0.00796508 6.08947 0.00796508C6.55364 0.00796508 6.92999 0.384166 6.92999 0.849439Z" fill="#5669FF"/>
<path fill-rule="evenodd" clip-rule="evenodd" d="M0 17.3956V8.34896H21V17.3956C21 21.3405 18.7968 23.3337 14.4306 23.3337H6.55936C2.20314 23.3337 0 21.3405 0 17.3956ZM4.73665 13.3793C4.73665 13.9267 5.16726 14.3707 5.69802 14.3707C6.23879 14.3707 6.6694 13.9163 6.65939 13.369C6.65939 12.8217 6.22878 12.3776 5.70803 12.3776H5.69802C5.16726 12.3776 4.73665 12.832 4.73665 13.3793ZM9.53368 13.3795C9.53368 13.9268 9.97431 14.3709 10.5051 14.3709C11.0358 14.3709 11.4664 13.9268 11.4664 13.3692C11.4664 12.8322 11.0358 12.3881 10.5051 12.3778H10.495C9.96429 12.3881 9.53368 12.8322 9.53368 13.3795ZM15.3018 14.3708C14.7711 14.3708 14.3405 13.9268 14.3405 13.3794C14.3405 12.8321 14.7611 12.388 15.3018 12.388C15.8326 12.388 16.2632 12.8321 16.2632 13.3794C16.2632 13.9268 15.8326 14.3708 15.3018 14.3708ZM15.3016 18.6045C14.7708 18.6045 14.3402 18.1605 14.3302 17.6131C14.3302 17.0658 14.7608 16.6217 15.2916 16.6217H15.3016C15.8324 16.6217 16.263 17.0658 16.263 17.6131C16.263 18.1605 15.8324 18.6045 15.3016 18.6045ZM10.5051 18.6046C9.97431 18.6046 9.53368 18.1606 9.53368 17.6132C9.53368 17.0659 9.96429 16.6218 10.495 16.6115H10.5051C11.0358 16.6218 11.4564 17.0659 11.4664 17.6029C11.4664 18.1606 11.0358 18.6046 10.5051 18.6046ZM5.69811 18.6046C5.16735 18.6046 4.73674 18.1606 4.73674 17.6132C4.72672 17.0659 5.15734 16.6115 5.69811 16.6115C6.22887 16.6115 6.65948 17.0555 6.65948 17.6029C6.65948 18.1502 6.22887 18.6046 5.69811 18.6046Z" fill="#5669FF"/>
</svg>
