<svg width="318" height="36" viewBox="0 0 318 36" fill="none" xmlns="http://www.w3.org/2000/svg">
<g clip-path="url(#clip0_35_3905)">
<mask id="mask0_35_3905" style="mask-type:luminance" maskUnits="userSpaceOnUse" x="0" y="0" width="34" height="36">
<path d="M32.6949 28.3952C30.4517 31.5663 27.2428 33.9267 23.5476 35.1238C19.8523 36.321 15.8689 36.2906 12.1923 35.0373C8.51574 33.7841 5.34319 31.3751 3.1485 28.1702C0.953806 24.9653 -0.145269 21.1364 0.0154142 17.2554C0.176097 13.3744 1.58792 9.64948 4.04002 6.63696C6.49213 3.62444 9.85295 1.48597 13.6206 0.540897C17.3882 -0.404171 21.3604 -0.105119 24.9441 1.39339C28.5277 2.8919 31.5305 5.50946 33.5039 8.85516L17.9999 18.0002L32.6949 28.3952Z" fill="white"/>
</mask>
<g mask="url(#mask0_35_3905)">
<path d="M32.6949 28.3952C30.4517 31.5663 27.2428 33.9267 23.5476 35.1238C19.8523 36.321 15.8689 36.2906 12.1923 35.0373C8.51574 33.7841 5.34319 31.3751 3.1485 28.1702C0.953806 24.9653 -0.145269 21.1364 0.0154142 17.2554C0.176097 13.3744 1.58792 9.64948 4.04002 6.63696C6.49213 3.62444 9.85295 1.48597 13.6206 0.540897C17.3882 -0.404171 21.3604 -0.105119 24.9441 1.39339C28.5277 2.8919 31.5305 5.50946 33.5039 8.85516L17.9999 18.0002L32.6949 28.3952Z" fill="#EF691E" stroke="black" stroke-width="2"/>
</g>
<path d="M15 5H20V10H15V5Z" fill="black"/>
</g>
<line x1="18" y1="18" x2="296" y2="18" stroke="black" stroke-width="2"/>
<rect x="107.5" y="7" width="22" height="22" rx="11" fill="#F65160" stroke="black"/>
<rect x="201.5" y="7" width="22" height="22" rx="11" fill="#F65160" stroke="black"/>
<rect x="295.5" y="7" width="22" height="22" rx="11" fill="#F65160" stroke="black"/>
<defs>
<clipPath id="clip0_35_3905">
<rect width="36" height="36" fill="white"/>
</clipPath>
</defs>
</svg>
