<svg width="22" height="22" viewBox="0 0 22 22" fill="none" xmlns="http://www.w3.org/2000/svg">
<ellipse cx="10.6141" cy="6.67149" rx="4.37986" ry="4.37986" stroke="#807A7A" stroke-width="1.5" stroke-linecap="round" stroke-linejoin="round"/>
<path fill-rule="evenodd" clip-rule="evenodd" d="M3.66667 17.1428C3.66549 16.8349 3.73436 16.5308 3.86804 16.2535C4.28757 15.4144 5.47064 14.9697 6.45233 14.7683C7.16033 14.6172 7.8781 14.5163 8.60031 14.4663C9.93743 14.3488 11.2823 14.3488 12.6194 14.4663C13.3415 14.5169 14.0593 14.6178 14.7674 14.7683C15.7491 14.9697 16.9321 15.3724 17.3516 16.2535C17.6205 16.8188 17.6205 17.4752 17.3516 18.0406C16.9321 18.9216 15.7491 19.3244 14.7674 19.5174C14.0602 19.6747 13.3422 19.7785 12.6194 19.8278C11.5311 19.9201 10.4377 19.9369 9.34707 19.8782C9.09535 19.8782 8.85203 19.8782 8.60031 19.8278C7.88024 19.7791 7.16495 19.6753 6.46072 19.5174C5.47064 19.3244 4.29596 18.9216 3.86804 18.0406C3.73504 17.7601 3.66625 17.4534 3.66667 17.1428Z" stroke="#807A7A" stroke-width="1.5" stroke-linecap="round" stroke-linejoin="round"/>
</svg>
