<svg width="23" height="23" viewBox="0 0 23 23" fill="none" xmlns="http://www.w3.org/2000/svg">
<path d="M11.5 21.0833C16.7927 21.0833 21.0833 16.7927 21.0833 11.5C21.0833 6.20728 16.7927 1.91667 11.5 1.91667C6.20723 1.91667 1.91663 6.20728 1.91663 11.5C1.91663 16.7927 6.20723 21.0833 11.5 21.0833Z" stroke="#767676" stroke-width="1.5" stroke-linecap="round" stroke-linejoin="round"/>
<path d="M8.7113 8.625C8.93661 7.98451 9.38132 7.44443 9.96668 7.10042C10.552 6.7564 11.2402 6.63065 11.9094 6.74543C12.5786 6.86021 13.1856 7.20812 13.6228 7.72754C14.0601 8.24696 14.2994 8.90437 14.2984 9.58333C14.2984 11.5 11.4234 12.4583 11.4234 12.4583V14.0897" stroke="#767676" stroke-width="1.5" stroke-linecap="round" stroke-linejoin="round"/>
<path d="M11.5 16.2917H11.5104" stroke="#767676" stroke-width="1.5" stroke-linecap="round" stroke-linejoin="round"/>
</svg>
