<svg width="23" height="23" viewBox="0 0 23 23" fill="none" xmlns="http://www.w3.org/2000/svg">
<path d="M8.625 7.90623V6.10935C8.625 5.63279 8.81431 5.17575 9.15129 4.83877C9.48827 4.50179 9.94531 4.31248 10.4219 4.31248H17.6094C18.0859 4.31248 18.543 4.50179 18.88 4.83877C19.2169 5.17575 19.4062 5.63279 19.4062 6.10935V16.8906C19.4062 17.3672 19.2169 17.8242 18.88 18.1612C18.543 18.4982 18.0859 18.6875 17.6094 18.6875H10.7812C9.78893 18.6875 8.625 17.8829 8.625 16.8906V15.0937" stroke="#F65160" stroke-width="1.5" stroke-linecap="round" stroke-linejoin="round"/>
<path d="M12.9375 15.0938L16.5312 11.5L12.9375 7.90627M3.59375 11.5H15.8125" stroke="#F65160" stroke-width="1.5" stroke-linecap="round" stroke-linejoin="round"/>
</svg>
