<svg width="24" height="24" viewBox="0 0 24 24" fill="none" xmlns="http://www.w3.org/2000/svg">
<path d="M11.3795 2.64863L5.76152 6.3723L7.42999 8.88956C7.64546 9.21464 7.55 9.64982 7.23325 9.85976C6.91651 10.0697 6.47852 9.9881 6.26305 9.66302L4.59458 7.14576L3.62769 7.78663C0.335241 9.9689 -0.0964291 11.6707 1.86718 14.7961C1.95829 14.9517 2.12994 15.0659 2.31012 15.1024C2.49583 15.1473 2.6762 15.1117 2.84291 15.0012C4.00985 14.2277 5.60928 14.5593 6.38274 15.7262C7.15621 16.8932 6.83852 18.4954 5.67157 19.2689C5.5132 19.3739 5.40184 19.5316 5.37083 19.7202C5.33429 19.9003 5.37258 20.1029 5.48036 20.2474C7.59401 23.2734 9.32951 23.5388 12.622 21.3565L13.5889 20.7156L11.9204 18.1984C11.7049 17.8733 11.8004 17.4381 12.1171 17.2282C12.4339 17.0182 12.8719 17.0998 13.0873 17.4249L14.7558 19.9422L20.3738 16.2185C23.7913 13.9534 24.1426 12.2209 21.8774 8.80338L18.7946 4.15228C16.5295 0.734804 14.797 0.383484 11.3795 2.64863ZM17.3384 8.34471L17.0605 9.60868C17.0437 9.65579 17.0685 9.71133 17.1045 9.74748L17.9895 10.6845C18.1499 10.8541 18.2075 11.1039 18.1181 11.3311C18.0371 11.5528 17.8398 11.7075 17.604 11.7319L16.3139 11.8671C16.2695 11.8725 16.2195 11.9057 16.1972 11.9444L15.5701 13.0799C15.5227 13.1713 15.4504 13.2432 15.3671 13.2985C15.2587 13.3703 15.1366 13.4033 15.0007 13.3973C14.765 13.3856 14.5546 13.2492 14.4553 13.027L13.9371 11.8469C13.9178 11.7997 13.8735 11.7691 13.8264 11.7523L12.554 11.5159C12.3239 11.4765 12.1357 11.3012 12.0725 11.0792C12.0038 10.8488 12.0738 10.6105 12.2573 10.4529L13.2192 9.58732C13.2554 9.55136 13.2721 9.50426 13.275 9.45434L13.1093 8.17254C13.085 7.93672 13.1882 7.71234 13.3882 7.57975C13.5883 7.44716 13.8351 7.4395 14.0345 7.55929L15.1505 8.21128C15.1948 8.2419 15.2447 8.24481 15.2864 8.21719L16.4583 7.66839C16.6749 7.5608 16.9272 7.59753 17.1071 7.74224C17.3036 7.87589 17.3862 8.10909 17.3384 8.34471Z" fill="white"/>
</svg>
