<svg width="26" height="27" viewBox="0 0 26 27" fill="none" xmlns="http://www.w3.org/2000/svg">
<path d="M13.2602 5.12764C15.1601 5.09841 16.9975 5.80624 18.3868 7.10257L22.1289 3.4434C19.7281 1.19377 16.55 -0.039807 13.2602 0.000980132C10.8021 0.000412151 8.39234 0.683647 6.30036 1.97428C4.20838 3.26491 2.51667 5.11204 1.41441 7.30912L5.70215 10.6381C6.22643 9.04392 7.23789 7.65456 8.59391 6.66591C9.94992 5.67727 11.5821 5.13922 13.2602 5.12764Z" fill="#E43E2B"/>
<path d="M25.9891 13.5556C26.0048 12.6441 25.9106 11.734 25.7086 10.845H13.2598V15.7664H20.568C20.4293 16.6292 20.1176 17.4551 19.6516 18.1944C19.1855 18.9336 18.5748 19.571 17.8561 20.0681L22.0406 23.3091C23.3446 22.05 24.3702 20.5315 25.051 18.8514C25.7318 17.1714 26.0527 15.3673 25.993 13.5556H25.9891Z" fill="#3B7DED"/>
<path d="M5.71741 15.8827C5.4275 15.0386 5.27805 14.1526 5.275 13.2601C5.28028 12.369 5.42438 11.4842 5.70211 10.6375L1.41438 7.30855C0.484408 9.15489 0 11.1934 0 13.2608C0 15.3281 0.484408 17.3666 1.41438 19.213L5.71741 15.8827Z" fill="#F0B501"/>
<path d="M13.2601 26.5202C16.49 26.6115 19.6322 25.4623 22.0409 23.3086L17.8564 20.0676C16.4997 20.9771 14.8929 21.4407 13.2601 21.3935C11.5835 21.3836 9.95249 20.8459 8.5986 19.8568C7.2447 18.8677 6.23664 17.4774 5.7174 15.8831L1.42967 19.2133C2.52895 21.4094 4.21789 23.2562 6.30735 24.5467C8.3968 25.8372 10.8043 26.5205 13.2601 26.5202Z" fill="#2BA24C"/>
</svg>
