<svg width="27" height="16" viewBox="0 0 27 16" fill="none" xmlns="http://www.w3.org/2000/svg">
<path fill-rule="evenodd" clip-rule="evenodd" d="M6.49545 12.5467L1.87064 14.9133C1.50139 15.0926 1.04647 14.9657 0.842904 14.6267V14.6267C0.784009 14.5216 0.752235 14.4052 0.750122 14.2867V3.8C0.750122 1.8 2.21322 1 4.31865 1H9.26463C11.3058 1 12.8332 1.74667 12.8332 3.66667V14.2867C12.8332 14.4759 12.7527 14.6573 12.6095 14.7911C12.4663 14.9248 12.272 15 12.0695 15C11.9403 14.9981 11.8133 14.9684 11.6984 14.9133L7.04501 12.5467C6.87353 12.4601 6.66693 12.4601 6.49545 12.5467Z" stroke="#979797" stroke-width="1.5" stroke-linecap="round" stroke-linejoin="round"/>
</svg>
