<svg width="160" height="167" viewBox="0 0 160 167" fill="none" xmlns="http://www.w3.org/2000/svg">
<path opacity="0.2" d="M71.8298 4.07948C75.8432 -1.35985 83.9761 -1.35986 87.9895 4.07947L96.031 14.978C98.5815 18.4346 103.048 19.886 107.143 18.5887L120.055 14.4982C126.499 12.4567 133.079 17.2371 133.129 23.9967L133.228 37.5405C133.26 41.836 136.021 45.6357 140.096 46.9932L152.946 51.2733C159.36 53.4095 161.873 61.1443 157.94 66.6421L150.06 77.6579C147.56 81.1517 147.56 85.8483 150.06 89.3421L157.94 100.358C161.873 105.856 159.36 113.591 152.946 115.727L140.096 120.007C136.021 121.364 133.26 125.164 133.228 129.46L133.129 143.003C133.079 149.763 126.499 154.543 120.055 152.502L107.143 148.411C103.048 147.114 98.5815 148.565 96.031 152.022L87.9895 162.921C83.9761 168.36 75.8432 168.36 71.8298 162.921L63.7883 152.022C61.2378 148.565 56.771 147.114 52.6759 148.411L39.7642 152.502C33.3201 154.543 26.7404 149.763 26.6907 143.003L26.591 129.46C26.5593 125.164 23.7987 121.364 19.7231 120.007L6.87304 115.727C0.459721 113.591 -2.05348 105.856 1.87941 100.358L9.75959 89.3421C12.2589 85.8483 12.2589 81.1517 9.75959 77.6579L1.87942 66.6421C-2.05348 61.1443 0.459712 53.4095 6.87304 51.2733L19.7231 46.9932C23.7987 45.6357 26.5593 41.8361 26.591 37.5405L26.6907 23.9967C26.7404 17.2371 33.3201 12.4567 39.7642 14.4982L52.6759 18.5887C56.771 19.886 61.2378 18.4346 63.7883 14.978L71.8298 4.07948Z" fill="#25956C"/>
</svg>
