<svg width="107" height="112" viewBox="0 0 107 112" fill="none" xmlns="http://www.w3.org/2000/svg">
<path d="M67.7195 42.6428L53.6711 61.3273L60.5455 65.3991L67.7195 42.6428Z" fill="#00B6AA"/>
<path d="M84.7503 75.1812L81.8311 111.926H63.0413L67.2623 95.0522L61.0343 95.0074L53.9076 112H36.3386L54.045 74.297" fill="#171766"/>
<path d="M67.7196 42.643L53.6711 76.303C53.6711 76.303 77.4749 84.742 90.8161 77.7311L86.2571 43.2698L67.7196 42.643Z" fill="#171766"/>
<path d="M82.8942 34.4858L74.6323 35.4976L74.157 40.8363C76.7946 40.3081 79.4367 39.7999 82.0924 39.3343L82.8942 34.4858Z" fill="#171766"/>
<path d="M83.4146 43.0816L82.7749 49.7164L76.6258 56.0961L75.6234 57.137L75.3509 56.4542L72.5353 49.4165L72.7561 42.2937H80.7567L83.4146 43.0816Z" fill="white"/>
<path d="M74.1593 40.8364L73.9251 43.4689L77.4344 47.1131L81.3671 43.7599L82.0969 39.3366C79.4368 39.8 76.7947 40.3081 74.1593 40.8364Z" fill="#F2583E"/>
<path d="M87.753 29.5598C88.6239 24.3011 85.0404 19.3365 79.7489 18.471C74.4573 17.6054 69.4617 21.1668 68.5908 26.4255C67.7199 31.6842 71.3035 36.6489 76.595 37.5144C81.8865 38.3799 86.8821 34.8185 87.753 29.5598Z" fill="#F2583E"/>
<path d="M82.398 33.0677C82.5934 31.8756 81.7792 30.7518 80.5797 30.5577C79.3801 30.3636 78.2493 31.1727 78.054 32.3648C77.8587 33.557 78.6728 34.6807 79.8724 34.8748C81.072 35.0689 82.2027 34.2599 82.398 33.0677Z" fill="#F6EF97"/>
<path d="M75.5265 18.7983C74.5715 18.8699 73.6142 18.9416 72.6569 19.0132C72.4001 19.0334 72.1366 19.0535 71.9046 19.1632C71.6726 19.2729 71.4744 19.4967 71.4721 19.7519C71.4699 20.0295 71.6838 20.2578 71.9068 20.4234C72.5713 20.9204 73.443 21.1398 74.2651 21.0144C73.9475 21.4464 73.2605 21.7106 73.3169 22.2433C73.3596 22.6507 73.8349 22.8544 74.2426 22.9149C74.9521 23.0201 75.6864 22.944 76.3576 22.6933C76.2473 23.1096 76.1437 23.5752 76.3554 23.949C76.5649 24.3229 77.0244 24.484 77.4546 24.5378C79.0921 24.7415 80.6395 23.8438 82.0586 23.0066C82.2388 22.8992 82.482 22.7962 82.642 22.9305C82.7343 23.0067 82.7591 23.132 82.7771 23.2506C83.0339 24.925 82.642 26.6263 82.6532 28.3186C82.6577 29.1602 82.8019 30.078 83.4258 30.6466C83.8921 31.0719 84.5498 31.2241 85.1805 31.2823C85.8224 31.3405 86.5004 31.3114 87.0612 30.9958C87.4284 30.7898 87.7212 30.472 87.9712 30.134C88.7934 29.0192 89.1966 27.5597 88.8497 26.2211C88.7348 25.7801 88.5366 25.3481 88.21 25.028" fill="#00B6AA"/>
<path d="M86.845 35.4974C88.859 35.4974 90.4917 33.8749 90.4917 31.8733C90.4917 29.8718 88.859 28.2492 86.845 28.2492C84.831 28.2492 83.1983 29.8718 83.1983 31.8733C83.1983 33.8749 84.831 35.4974 86.845 35.4974Z" fill="#F2583E"/>
<path d="M90.0458 18.7471L89.4872 20.99L88.5457 24.7574L75.5041 18.7471L77.3308 16.6608L79.7409 13.9053C79.7409 13.9053 86.309 14.3798 90.0458 18.7471Z" fill="#171766"/>
<path d="M89.4872 20.9901L88.5457 24.7574L75.5041 18.7471L77.3308 16.6609L89.4872 20.9901Z" fill="#00B6AA"/>
<path d="M72.3889 16.1997L93.4222 26.0176C93.4222 26.0176 91.6 29.7469 79.7409 23.3292C71.6028 18.9262 72.3889 16.1997 72.3889 16.1997Z" fill="#171766"/>
<path d="M69.9045 24.0163C69.9045 24.0163 68.7557 26.5257 70.5239 27.0942C72.292 27.6628 73.7246 25.4646 73.7246 25.4646C73.7246 25.4646 71.5893 27.0987 70.4811 26.1675C69.6612 25.4803 69.9045 24.0163 69.9045 24.0163Z" fill="#171766"/>
<path d="M76.7068 26.9399C76.7068 26.9399 75.5581 29.4492 77.3263 30.0178C79.0944 30.5864 80.527 28.3882 80.527 28.3882C80.527 28.3882 78.3917 30.0223 77.2835 29.0911C76.4613 28.4039 76.7068 26.9399 76.7068 26.9399Z" fill="#171766"/>
<path d="M75.7157 24.352L71.4721 28.2L73.5939 29.7871L76.1459 24.7572L75.7157 24.352Z" fill="#FFB459"/>
<path d="M84.998 33.3309L84.7503 30.797L88.7461 29.4516V30.112L85.4283 31.1618L86.104 33.5749L84.998 33.3309Z" fill="#171766"/>
<path d="M77.4344 47.1111L75.2157 49.0809L72.1276 41.9357L74.1593 40.8366L77.4344 47.1111Z" fill="#00B6AA"/>
<path d="M78.9028 49.7162L77.4342 47.1106L81.7589 41.3667L84.0181 43.1216L78.9028 49.7162Z" fill="#00B6AA"/>
<path d="M77.975 47.111L76.6257 56.0963L75.6234 57.1372L75.3509 56.4544L77.0582 47.111H77.975Z" fill="#00B6AA"/>
<path d="M71.7086 34.356C71.7086 34.356 67.0573 34.8776 64.9648 36.8161C64.1539 37.5705 63.6246 40.5611 63.0322 44.9396C63.0299 44.9463 63.0299 44.953 63.0277 44.9597C62.0929 51.8542 60.9892 62.1736 58.3449 72.6161C54.0134 89.7068 43.258 95.8223 43.258 95.8223C35.8272 95.4664 30.3403 93.7473 26.3152 91.2357C15.553 84.5225 15.249 72.1527 16.2243 65.0814C14.7827 62.1221 15.2828 57.8265 15.4066 57.7929C21.5175 56.2013 27.7522 59.2591 32.4306 62.684C34.0681 63.8838 35.5164 65.1284 36.6989 66.2319C38.5752 67.9847 39.7938 69.3859 40.0663 69.7016V69.7038C40.1046 69.7486 40.1226 69.771 40.1226 69.771L36.4669 73.4488L38.181 77.2788C38.181 77.2788 59.3292 37.0176 63.0344 34.1121C68.7466 31.8736 70.6094 32.3638 70.6094 32.3638L71.7086 34.356Z" fill="#F6EF97"/>
<path d="M56.8893 48.539C57.79 47.6438 57.79 46.1925 56.8893 45.2973C55.9886 44.4022 54.5282 44.4022 53.6275 45.2973C52.7267 46.1925 52.7267 47.6438 53.6275 48.539C54.5282 49.4341 55.9886 49.4341 56.8893 48.539Z" fill="#FFB459"/>
<path d="M60.0204 43.6391C60.9211 42.7439 60.9211 41.2926 60.0204 40.3974C59.1197 39.5023 57.6593 39.5023 56.7585 40.3974C55.8578 41.2926 55.8578 42.7439 56.7585 43.6391C57.6593 44.5342 59.1197 44.5342 60.0204 43.6391Z" fill="#FFB459"/>
<path d="M54.426 52.5804C54.7173 51.348 53.9482 50.1142 52.7081 49.8247C51.4681 49.5351 50.2266 50.2995 49.9353 51.5319C49.6439 52.7643 50.4131 53.9981 51.6531 54.2876C52.8932 54.5771 54.1347 53.8128 54.426 52.5804Z" fill="#FFB459"/>
<path d="M51.3522 57.73C51.6462 56.4983 50.8797 55.2629 49.6403 54.9707C48.4008 54.6785 47.1577 55.4402 46.8637 56.672C46.5697 57.9037 47.3361 59.1391 48.5756 59.4313C49.815 59.7235 51.0582 58.9618 51.3522 57.73Z" fill="#FFB459"/>
<path d="M48.2784 62.8704C48.5724 61.6387 47.806 60.4033 46.5665 60.1111C45.3271 59.8189 44.084 60.5806 43.79 61.8124C43.496 63.0441 44.2624 64.2795 45.5019 64.5717C46.7413 64.8639 47.9844 64.1022 48.2784 62.8704Z" fill="#FFB459"/>
<path d="M45.2012 68.0003C45.4925 66.7679 44.7234 65.5341 43.4833 65.2446C42.2432 64.9551 41.0018 65.7194 40.7104 66.9518C40.4191 68.1842 41.1882 69.418 42.4283 69.7075C43.6684 69.997 44.9099 69.2327 45.2012 68.0003Z" fill="#FFB459"/>
<path d="M59.0184 37.66L65.0391 40.1626L66.3456 38.9113L59.9351 36.2609" fill="#F2583E"/>
<path d="M63.0277 44.9599C62.093 51.8544 60.9893 62.1738 58.3449 72.6163C54.0135 89.707 43.2581 95.8225 43.2581 95.8225C43.2581 95.8225 37.0774 93.9221 34.6402 91.2359L42.6184 92.523C42.6184 92.523 60.7257 58.8429 63.0277 44.9599Z" fill="#FFB459"/>
<path d="M32.4306 62.684C30.2615 65.3366 28.3964 68.2287 27.045 71.367C25.2115 75.6246 24.8488 80.8895 25.1529 85.5097C25.2813 87.4572 25.6777 89.389 26.3174 91.2357C15.5553 84.5226 15.2512 72.1527 16.2265 65.0814C14.7827 62.1221 15.285 57.8265 15.4066 57.7929C21.5197 56.2014 27.7522 59.2591 32.4306 62.684Z" fill="#FFB459"/>
<path d="M40.0664 69.7013L36.467 73.4485C19.0556 74.3663 17.1838 61.269 17.1838 61.269L28.1509 62.2136L36.6967 66.2317C38.5752 67.9844 39.7938 69.3857 40.0664 69.7013Z" fill="#FFB459"/>
<path d="M40.1226 69.7709C21.7878 75.2798 15.4066 57.7928 15.4066 57.7928C27.5292 54.6343 40.1226 69.7709 40.1226 69.7709Z" fill="#171766"/>
<path d="M69.8661 30.5283L71.1658 35.5402L72.3393 35.0903L71.5555 30.5283H69.8661Z" fill="#171766"/>
<path d="M72.7245 30.8999L70.8009 31.6811L71.4316 33.6845L73.5782 34.0785L72.7245 30.8999Z" fill="#171766"/>
<path d="M22.8757 39.1867C16.0441 49.0607 24.0515 59.3129 29.7637 68.0317C28.9416 67.9489 28.1217 67.7989 27.4054 67.5326C24.6799 66.5275 11.3005 55.2209 13.4177 44.624C14.1813 40.7895 16.0779 37.2997 17.4519 33.6376C18.8259 29.9732 19.434 25.6104 17.2649 22.3489C16.4788 21.1648 15.3864 20.2224 14.33 19.271C11.573 16.793 8.91737 14.089 7.27534 10.776C5.63331 7.46084 5.12426 3.42039 6.70998 0.0783466L13.5799 0H27.0428C25.3985 3.20774 25.3129 7.08925 27.6059 10.7581C30.0835 14.3397 33.0117 17.2497 32.5612 21.7266C31.8855 28.6659 26.7049 33.3667 22.8757 39.1867Z" fill="#00B6AA"/>
<path d="M62.2935 15.0112C55.9866 17.2497 46.9769 17.6974 46.3011 25.7559C45.8507 31.1282 46.3011 37.396 41.1205 40.5298C37.0661 42.7683 32.336 44.1114 30.3088 48.3645C27.696 54.5293 28.6375 62.1043 32.0094 68.1101C31.3202 68.1258 30.5408 68.1101 29.7637 68.0317C24.0516 59.3129 16.0441 49.0607 22.8758 39.1867C26.7049 33.3667 31.8855 28.6659 32.5613 21.7266C33.0118 17.2497 30.0836 14.3397 27.6059 10.7581C25.3129 7.08925 25.3985 3.20774 27.0428 0H70.8122C71.1726 6.23192 68.2579 12.8556 62.2935 15.0112Z" fill="#7BD6AA"/>
<path d="M97.6906 0C96.6072 3.38681 95.3526 6.74676 93.3659 9.69484C91.19 12.9205 88.0209 15.6425 84.2187 16.5468C81.8852 17.1019 79.4481 16.9542 77.056 17.1422C74.6639 17.3303 72.1502 17.9369 70.4879 19.656C68.6183 21.5856 68.1859 24.527 66.4515 26.5752C62.8228 30.8686 55.4303 29.4807 51.1642 33.1496C46.6278 37.049 47.2877 45.2127 42.1139 48.2324C40.0844 49.4166 31.2459 51.4357 31.0431 57.2893C30.8765 62.1289 34.379 67.9355 34.379 67.9355C34.379 67.9355 33.3654 68.0787 32.0094 68.1101C28.6375 62.1042 27.696 54.5292 30.3088 48.3645C32.336 44.1114 37.0662 42.7683 41.1206 40.5298C46.3012 37.396 45.8507 31.1282 46.3012 25.7559C46.9769 17.6974 55.9867 17.2497 62.2935 15.0112C68.2579 12.8556 71.1726 6.23191 70.8122 0H97.6906Z" fill="#00B6AA"/>
<path d="M98.9947 73.4936C98.141 78.3198 94.2443 82.893 88.5006 85.9866C81.6892 89.6554 72.2807 91.2425 62.2777 88.7018C60.4442 88.2362 58.5904 87.6318 56.7299 86.8752L64.1922 66.5118C65.5978 66.8118 67.0799 67.1028 68.5777 67.3557C75.4161 68.513 82.6262 68.8958 84.7502 66.0037C89.1132 60.0672 84.7502 49.083 84.7502 49.083C84.7502 49.083 82.7411 46.6364 86.2571 43.2697C86.2571 43.2697 97.7288 56.0313 99.1095 68.1884C99.3145 69.9837 99.301 71.7678 98.9947 73.4936Z" fill="#00B6AA"/>
<path d="M60.2122 65.1888L59.0184 57.3586L57.5656 56.7252L56.4979 61.7483L49.8465 56.5192L48.7338 58.1041L52.1822 62.8832L46.8012 61.1954L45.5466 63.7853L51.8354 67.4788L43.4653 67.3579L42.9562 69.3904L61.1109 76.6207L64.7486 69.3904L60.2122 65.1888Z" fill="#F1573D"/>
<path d="M43.4653 69.122L43.7243 67.4789C43.7243 67.4789 45.265 67.94 45.1118 68.7705C44.9609 69.601 43.4653 69.122 43.4653 69.122Z" fill="#171766"/>
<path d="M46.4498 63.3867L47.1886 61.7773C47.1886 61.7773 49.0626 62.9099 48.8329 63.6889C48.6076 64.4679 46.4498 63.3867 46.4498 63.3867Z" fill="#171766"/>
<path d="M49.3397 58.1801L50.0987 57.1996C50.0987 57.1996 51.9728 58.6323 51.3128 59.2747C50.6573 59.9149 49.3397 58.1801 49.3397 58.1801Z" fill="#171766"/>
<path d="M57.8449 57.4753L59.059 57.8536C59.059 57.8536 59.363 60.0921 58.7053 59.9421C58.0476 59.7899 57.8449 57.4753 57.8449 57.4753Z" fill="#171766"/>
<path d="M69.5373 64.101L68.5777 67.3557L62.2776 88.7018L61.1492 92.5229L55.8041 89.398L56.7299 86.8752L64.1922 66.5118L65.5234 62.8832L69.5373 64.101Z" fill="white"/>
<path d="M98.9947 73.4938C98.1411 78.32 94.2443 82.8932 88.5006 85.9867C87.264 83.2648 87.0298 80.0906 87.9263 77.2343C89.2574 72.9857 93.0078 69.6548 97.3302 68.4931C97.9001 68.3386 98.506 68.2289 99.1096 68.1886C99.3146 69.9839 99.3011 71.768 98.9947 73.4938Z" fill="#FFB459"/>
<path d="M49.1076 53.0743L43.7265 49.5958L50.8712 36.7805L55.8041 37.6602L49.1076 53.0743Z" fill="white"/>
<path d="M50.5468 39.2003L58.4529 38.2131L59.462 39.4308L54.8895 41.817L61.7595 46.7573L60.5274 48.2526L54.9639 46.2514L58.0587 50.9411L55.8941 52.8438L50.6077 47.8318L52.9998 55.8053L51.1685 56.8439L45.5825 49.636" fill="#F1573D"/>
<path d="M51.2902 56.2842L52.8106 55.5881C52.8106 55.5881 51.9457 54.2405 51.1844 54.6121C50.4208 54.9837 51.2902 56.2842 51.2902 56.2842Z" fill="#171766"/>
<path d="M56.0338 51.8727L57.3921 50.7288C57.3921 50.7288 55.7861 49.2447 55.0946 49.6745C54.4008 50.1043 56.0338 51.8727 56.0338 51.8727Z" fill="#171766"/>
<path d="M60.291 47.691L61.0343 46.6971C61.0343 46.6971 59.1377 45.2958 58.694 46.0994C58.2525 46.9053 60.291 47.691 60.291 47.691Z" fill="#171766"/>
<path d="M58.6602 39.3659L57.9642 38.3071C57.9642 38.3071 55.714 38.6249 56.0384 39.2137C56.365 39.8024 58.6602 39.3659 58.6602 39.3659Z" fill="#171766"/>
<path d="M2.66238 86.7855L10.1833 90.6804L15.5531 79.5888L13.1587 98.3539L7.78893 95.0298L0 108.344L2.66238 86.7855Z" fill="#FFB459"/>
<path d="M21.4274 90.7995L24.3916 102.717L17.4721 104.369L22.4996 110.388V105.195L30.0137 104.723L21.4274 90.7995Z" fill="#F6EF97"/>
<path d="M39.6586 61.3276L48.6999 54.8965L46.6908 52.123L39.6586 61.3276Z" fill="#00B6AA"/>
<path d="M35.6179 59.2747L40.3548 44.3776L37.109 44.9596L35.6179 59.2747Z" fill="#F1573D"/>
<path d="M13.1588 56.7254L2.41919 50.5204L5.60414 45.9897L13.1588 56.7254Z" fill="#00B6AA"/>
<path d="M10.2216 44.9597L3.11291 29.4516L9.29586 26.1789L10.2216 44.9597Z" fill="#F6EF97"/>
<path d="M10.7622 59.2748L1.10596 63.5727L2.80429 66.4917L10.7622 59.2748Z" fill="#F1573D"/>
<path d="M95.0147 32.715L99.247 38.497L106.119 30.8996L101.184 45.9892L94.661 38.4455L87.3856 42.0181L95.0147 32.715Z" fill="#FFB459"/>
<path d="M91.6653 45.9897C91.6653 45.9897 103.123 56.9246 103.299 56.0002C103.475 55.0757 106.119 52.1231 106.119 52.1231L91.6653 45.9897Z" fill="#171766"/>
<path d="M96.7514 30.528L107 19.3311L103.651 16.6606L96.7514 30.528Z" fill="#171766"/>
<path d="M86.7482 89.942L101.876 106.766L107 99.9346L86.7482 89.942Z" fill="#FFB459"/>
<path d="M90.8161 88.8989L104.885 91.2359V86.9716L90.8161 88.8989Z" fill="#F6EF97"/>
<path d="M85.4959 95.0299L86.8451 108.344L94.4854 106.766L85.4959 95.0299Z" fill="#F6EF97"/>
<path d="M8.60438 77.3527C8.60438 78.1362 7.96468 78.7719 7.17633 78.7719C6.38798 78.7719 5.74828 78.1362 5.74828 77.3527C5.74828 76.5692 6.38798 75.9335 7.17633 75.9335C7.96468 75.9357 8.60438 76.5692 8.60438 77.3527Z" fill="#7BD6AA"/>
<path d="M99.9677 83.0162C100.921 83.0162 101.693 82.2485 101.693 81.3015C101.693 80.3545 100.921 79.5868 99.9677 79.5868C99.0148 79.5868 98.2423 80.3545 98.2423 81.3015C98.2423 82.2485 99.0148 83.0162 99.9677 83.0162Z" fill="#171766"/>
<path d="M99.9678 61.5693C101.137 61.5693 102.085 60.6273 102.085 59.4652C102.085 58.3031 101.137 57.361 99.9678 57.361C98.7984 57.361 97.8505 58.3031 97.8505 59.4652C97.8505 60.6273 98.7984 61.5693 99.9678 61.5693Z" fill="#7BD6AA"/>
<path d="M96.1678 14.9866C97.0971 14.9866 97.8504 14.238 97.8504 13.3145C97.8504 12.391 97.0971 11.6423 96.1678 11.6423C95.2386 11.6423 94.4852 12.391 94.4852 13.3145C94.4852 14.238 95.2386 14.9866 96.1678 14.9866Z" fill="#FFB459"/>
<path d="M7.72499 19.0573C8.02172 17.8085 7.24355 16.557 5.98689 16.2621C4.73024 15.9672 3.47097 16.7406 3.17424 17.9894C2.87751 19.2383 3.65568 20.4898 4.91233 20.7847C6.16899 21.0795 7.42825 20.3062 7.72499 19.0573Z" fill="#FFB459"/>
<path d="M52.2026 34.4857C53.199 34.4857 54.0068 33.6829 54.0068 32.6926C54.0068 31.7024 53.199 30.8996 52.2026 30.8996C51.2061 30.8996 50.3984 31.7024 50.3984 32.6926C50.3984 33.6829 51.2061 34.4857 52.2026 34.4857Z" fill="#FFB459"/>
<path d="M11.4918 68.8674C12.0318 67.5977 11.4338 66.1334 10.1562 65.5968C8.87858 65.0601 7.40514 65.6544 6.86516 66.9241C6.32518 68.1938 6.92315 69.6581 8.20076 70.1947C9.47837 70.7313 10.9518 70.1371 11.4918 68.8674Z" fill="#171766"/>
<path d="M34.8543 101.309C35.6753 101.309 36.3409 100.648 36.3409 99.8318C36.3409 99.0158 35.6753 98.3544 34.8543 98.3544C34.0332 98.3544 33.3676 99.0158 33.3676 99.8318C33.3676 100.648 34.0332 101.309 34.8543 101.309Z" fill="#FFB459"/>
<path d="M13.4561 104.664C14.4314 104.664 15.222 103.879 15.222 102.909C15.222 101.94 14.4314 101.154 13.4561 101.154C12.4808 101.154 11.6902 101.94 11.6902 102.909C11.6902 103.879 12.4808 104.664 13.4561 104.664Z" fill="#7BD6AA"/>
</svg>
