<svg width="23" height="23" viewBox="0 0 23 23" fill="none" xmlns="http://www.w3.org/2000/svg">
<path d="M19.8855 6.70833V16.2917C19.8855 20.3646 18.6684 21.6967 14.8734 21.7925C14.6817 21.7925 14.49 21.7254 14.3559 21.5912C14.2217 21.4571 14.1355 21.275 14.1355 21.0737C14.1355 19.6267 12.9471 18.4479 11.5 18.4479C10.053 18.4479 8.86462 19.6267 8.86462 21.0737C8.86462 21.2654 8.78796 21.4475 8.64421 21.5912C8.50046 21.735 8.31837 21.8021 8.12671 21.7925C4.33171 21.6967 3.11462 20.3646 3.11462 16.2917L3.11462 6.70833C3.11462 2.48208 4.39879 1.19791 8.62504 1.19791H14.375C18.6013 1.19791 19.8855 2.48208 19.8855 6.70833ZM15.5059 20.3262C17.94 20.1633 18.448 19.3392 18.448 16.2917V6.70833C18.448 3.2775 17.7963 2.63541 14.375 2.63541H8.62504C5.20379 2.63541 4.55212 3.2775 4.55212 6.70833L4.55212 16.2917C4.55212 19.3392 5.06962 20.1633 7.49421 20.3262C7.85837 18.4383 9.51629 17.0104 11.5 17.0104C13.4838 17.0104 15.1417 18.4383 15.5059 20.3262Z" fill="#767676"/>
<path d="M7.90629 14.375C7.90629 14.7679 7.58046 15.0938 7.18754 15.0938H3.83337C3.44046 15.0938 3.11462 14.7679 3.11462 14.375C3.11462 13.9821 3.44046 13.6562 3.83337 13.6562H7.18754C7.58046 13.6562 7.90629 13.9821 7.90629 14.375Z" fill="#767676"/>
<path d="M19.8854 14.375C19.8854 14.7679 19.5596 15.0938 19.1667 15.0938H15.8125C15.4196 15.0938 15.0938 14.7679 15.0938 14.375C15.0938 13.9821 15.4196 13.6562 15.8125 13.6562H19.1667C19.5596 13.6562 19.8854 13.9821 19.8854 14.375Z" fill="#767676"/>
<path d="M14.9979 10.5033C14.9979 10.7333 14.9212 10.9633 14.7871 11.155C14.5379 11.5 14.1162 11.6725 13.6946 11.5958L12.5542 11.3946L11.7396 12.2283C11.4425 12.535 11.0017 12.6404 10.5992 12.5158C10.1967 12.3817 9.89958 12.0367 9.84208 11.615L9.66958 10.465L8.62499 9.94748C8.24166 9.75582 8.00208 9.37248 8.00208 8.95082C8.00208 8.51957 8.24166 8.13623 8.62499 7.95415L9.66958 7.43665L9.84208 6.28665C9.89958 5.86498 10.1967 5.51999 10.5992 5.38582C11.0017 5.25165 11.4425 5.36665 11.7396 5.67332L12.5542 6.50707L13.6946 6.30582C14.1162 6.22915 14.5379 6.40165 14.7871 6.74665C15.0362 7.09165 15.065 7.54207 14.8733 7.91582L14.3367 8.94123L14.8733 9.97623C14.9596 10.1392 14.9979 10.3212 14.9979 10.5033ZM11.1646 10.7621L11.6437 10.2733C11.9025 10.005 12.2667 9.88998 12.6308 9.94748L13.3017 10.0625L12.9854 9.45873C12.8129 9.1329 12.8129 8.74957 12.9854 8.42373L13.3017 7.81998L12.6308 7.93498C12.2571 7.99248 11.8929 7.87748 11.6437 7.60915L11.1646 7.1204L11.0687 7.79123C11.0112 8.1554 10.7812 8.47165 10.4554 8.63457L9.84208 8.93165L10.4554 9.22873C10.7812 9.39165 11.0112 9.7079 11.0687 10.0721L11.1646 10.7621Z" fill="#767676"/>
</svg>
