<svg width="24" height="24" viewBox="0 0 24 24" fill="none" xmlns="http://www.w3.org/2000/svg">
<path d="M12 2.24983C6.62392 2.24983 2.25001 6.62374 2.25001 11.9998C2.25001 17.3759 6.62392 21.7498 12 21.7498C17.3761 21.7498 21.75 17.3759 21.75 11.9998C21.75 6.62374 17.3761 2.24983 12 2.24983ZM13.5 16.4998H10.5C10.3011 16.4998 10.1103 16.4208 9.96969 16.2802C9.82904 16.1395 9.75002 15.9488 9.75002 15.7498C9.75002 15.5509 9.82904 15.3602 9.96969 15.2195C10.1103 15.0789 10.3011 14.9998 10.5 14.9998H13.5C13.6989 14.9998 13.8897 15.0789 14.0304 15.2195C14.171 15.3602 14.25 15.5509 14.25 15.7498C14.25 15.9488 14.171 16.1395 14.0304 16.2802C13.8897 16.4208 13.6989 16.4998 13.5 16.4998ZM15.75 13.4998H8.25002C8.05111 13.4998 7.86034 13.4208 7.71969 13.2802C7.57904 13.1395 7.50002 12.9488 7.50002 12.7498C7.50002 12.5509 7.57904 12.3602 7.71969 12.2195C7.86034 12.0789 8.05111 11.9998 8.25002 11.9998H15.75C15.9489 11.9998 16.1397 12.0789 16.2804 12.2195C16.421 12.3602 16.5 12.5509 16.5 12.7498C16.5 12.9488 16.421 13.1395 16.2804 13.2802C16.1397 13.4208 15.9489 13.4998 15.75 13.4998ZM17.25 10.4998H6.75002C6.55111 10.4998 6.36034 10.4208 6.21969 10.2802C6.07904 10.1395 6.00002 9.94875 6.00002 9.74984C6.00002 9.55092 6.07904 9.36016 6.21969 9.21951C6.36034 9.07885 6.55111 8.99984 6.75002 8.99984H17.25C17.4489 8.99984 17.6397 9.07885 17.7804 9.21951C17.921 9.36016 18 9.55092 18 9.74984C18 9.94875 17.921 10.1395 17.7804 10.2802C17.6397 10.4208 17.4489 10.4998 17.25 10.4998Z" fill="white"/>
</svg>
