<svg width="26" height="26" viewBox="0 0 26 26" fill="none" xmlns="http://www.w3.org/2000/svg">
<path d="M26 8.27734V6.90625C26 5.33569 24.7268 4.0625 23.1562 4.0625H2.84375C1.27319 4.0625 0 5.33569 0 6.90625V8.27734C0 8.41755 0.113699 8.53125 0.253906 8.53125H25.7461C25.8863 8.53125 26 8.41755 26 8.27734Z" fill="#2F3A53"/>
<path d="M0 10.4102V19.0938C0 20.6643 1.27319 21.9375 2.84375 21.9375H23.1562C24.7268 21.9375 26 20.6643 26 19.0938V10.4102C26 10.2699 25.8863 10.1562 25.7461 10.1562H0.253906C0.113699 10.1562 0 10.2699 0 10.4102ZM6.5 17.0625C6.5 17.5112 6.1362 17.875 5.6875 17.875H4.875C4.4263 17.875 4.0625 17.5112 4.0625 17.0625V16.25C4.0625 15.8013 4.4263 15.4375 4.875 15.4375H5.6875C6.1362 15.4375 6.5 15.8013 6.5 16.25V17.0625Z" fill="#2F3A53"/>
</svg>
