<svg width="24" height="24" viewBox="0 0 24 24" fill="none" xmlns="http://www.w3.org/2000/svg">
<path d="M12.0099 17.0003C11.1599 17.0003 10.2999 16.7803 9.62995 16.3503L3.60995 12.4203C2.48995 11.6903 1.81995 10.4603 1.81995 9.12028C1.81995 7.78028 2.48995 6.55028 3.60995 5.82028L9.63995 1.90028C10.9799 1.03028 13.0699 1.03028 14.3999 1.91028L20.3899 5.84028C21.4999 6.57028 22.1699 7.80028 22.1699 9.13028C22.1699 10.4603 21.4999 11.6903 20.3899 12.4203L14.3999 16.3503C13.7299 16.7903 12.8699 17.0003 12.0099 17.0003ZM12.0099 2.75028C11.4399 2.75028 10.8699 2.88028 10.4599 3.16028L4.43995 7.08028C3.73995 7.54028 3.32995 8.28028 3.32995 9.12028C3.32995 9.96028 3.72995 10.7003 4.43995 11.1603L10.4599 15.0903C11.2899 15.6303 12.7499 15.6303 13.5799 15.0903L19.5699 11.1603C20.2699 10.7003 20.6699 9.96028 20.6699 9.12028C20.6699 8.28028 20.2699 7.54028 19.5699 7.08028L13.5799 3.15028C13.1599 2.89028 12.5899 2.75028 12.0099 2.75028Z" fill="#7D8592"/>
<path d="M12.0001 22.7501C11.5601 22.7501 11.1101 22.6901 10.7501 22.5701L7.56006 21.5101C6.05006 21.0101 4.86006 19.3601 4.87006 17.7701L4.88006 13.0801C4.88006 12.6701 5.22006 12.3301 5.63006 12.3301C6.04006 12.3301 6.38006 12.6701 6.38006 13.0801L6.37006 17.7701C6.37006 18.7101 7.15006 19.7901 8.04006 20.0901L11.2301 21.1501C11.6301 21.2801 12.3701 21.2801 12.7701 21.1501L15.9601 20.0901C16.8501 19.7901 17.6301 18.7101 17.6301 17.7801V13.1401C17.6301 12.7301 17.9701 12.3901 18.3801 12.3901C18.7901 12.3901 19.1301 12.7301 19.1301 13.1401V17.7801C19.1301 19.3701 17.9501 21.0101 16.4401 21.5201L13.2501 22.5801C12.8901 22.6901 12.4401 22.7501 12.0001 22.7501Z" fill="#7D8592"/>
<path d="M21.4 15.75C20.99 15.75 20.65 15.41 20.65 15V9C20.65 8.59 20.99 8.25 21.4 8.25C21.81 8.25 22.15 8.59 22.15 9V15C22.15 15.41 21.81 15.75 21.4 15.75Z" fill="#7D8592"/>
</svg>
