<svg width="23" height="23" viewBox="0 0 23 23" fill="none" xmlns="http://www.w3.org/2000/svg">
<path fill-rule="evenodd" clip-rule="evenodd" d="M15.7271 2.65326L15.728 3.37165C18.3679 3.57854 20.1117 5.37739 20.1146 8.13601L20.125 16.2107C20.1288 19.2184 18.2392 21.069 15.2105 21.0737L7.81222 21.0833C4.80239 21.0871 2.8892 19.1925 2.88541 16.1762L2.87501 8.19635C2.87122 5.41954 4.55355 3.62548 7.19341 3.38314L7.19247 2.66475C7.19152 2.24329 7.50376 1.92624 7.92009 1.92624C8.33641 1.92529 8.64865 2.24138 8.6496 2.66283L8.65055 3.33333L14.2709 3.32567L14.27 2.65517C14.269 2.23372 14.5813 1.91762 14.9976 1.91667C15.4044 1.91571 15.7261 2.2318 15.7271 2.65326ZM4.3331 8.49227L18.6584 8.47312V8.13787C18.6177 6.07848 17.5845 4.99802 15.7299 4.8371L15.7309 5.57465C15.7309 5.98653 15.4101 6.31316 15.0033 6.31316C14.587 6.31411 14.2738 5.98844 14.2738 5.57657L14.2728 4.80071L8.65245 4.80837L8.6534 5.58327C8.6534 5.99611 8.3421 6.32178 7.92578 6.32178C7.50946 6.32273 7.19627 5.99802 7.19627 5.58519L7.19532 4.84764C5.35025 5.03251 4.32931 6.1168 4.33215 8.19438L4.3331 8.49227ZM14.605 12.8457V12.8562C14.6144 13.2968 14.974 13.6311 15.4102 13.6216C15.836 13.611 16.1757 13.2461 16.1662 12.8055C16.1463 12.384 15.8048 12.0401 15.3799 12.0411C14.9447 12.0507 14.604 12.4051 14.605 12.8457ZM15.3864 17.1465C14.9512 17.1369 14.6002 16.7739 14.5992 16.3332C14.5897 15.8926 14.9389 15.5277 15.3741 15.5172H15.3836C15.8283 15.5172 16.1888 15.8802 16.1888 16.3304C16.1897 16.7806 15.8302 17.1455 15.3864 17.1465ZM10.7066 12.8611C10.7255 13.3017 11.086 13.6456 11.5213 13.6265C11.9471 13.6063 12.2867 13.2424 12.2678 12.8017C12.2574 12.3707 11.9073 12.0355 11.4815 12.0364C11.0463 12.0556 10.7057 12.4205 10.7066 12.8611ZM11.5251 17.1035C11.0899 17.1226 10.7303 16.7787 10.7105 16.3381C10.7105 15.8975 11.0501 15.5335 11.4854 15.5134C11.9112 15.5125 12.2622 15.8477 12.2717 16.2778C12.2916 16.7194 11.9509 17.0833 11.5251 17.1035ZM6.80835 12.8946C6.82727 13.3352 7.18777 13.68 7.62302 13.6599C8.0488 13.6408 8.38849 13.2758 8.36862 12.8352C8.35915 12.4042 8.00906 12.0689 7.58233 12.0699C7.14709 12.089 6.8074 12.454 6.80835 12.8946ZM7.62676 17.1081C7.19152 17.1282 6.83196 16.7834 6.81209 16.3428C6.81115 15.9022 7.15178 15.5372 7.58702 15.5181C8.01281 15.5171 8.36384 15.8524 8.37331 16.2834C8.39318 16.724 8.05349 17.089 7.62676 17.1081Z" fill="#7D8592"/>
</svg>
