<svg width="30" height="30" viewBox="0 0 30 30" fill="none" xmlns="http://www.w3.org/2000/svg">
<g clip-path="url(#clip0_1_1182)">
<path d="M14.0608 4.01661C13.8651 2.72755 13.4692 1.42267 12.8926 0.147668C9.8982 0.568723 7.18789 1.87355 5.03357 3.79038L12.4762 11.233C13.9303 9.38374 14.4923 6.85788 14.0608 4.01661Z" fill="white"/>
<path d="M12.484 13.7269C10.7065 15.1946 8.4196 15.9613 5.85021 15.9614C5.16947 15.9614 4.46915 15.9076 3.75302 15.7989C2.50193 15.6089 1.24081 15.2525 0.00319507 14.7439C0.00184741 14.8292 3.10031e-05 14.9144 3.10031e-05 15C3.10031e-05 18.8259 1.43318 22.3165 3.79081 24.9663L13.7571 15L12.484 13.7269Z" fill="white"/>
<path d="M11.2338 12.4749L3.79113 5.0323C1.87429 7.18662 0.569467 9.89687 0.148412 12.8912C1.42347 13.4679 2.72841 13.8638 4.0173 14.0596C6.85875 14.4911 9.38455 13.929 11.2338 12.4749Z" fill="white"/>
<path d="M25.9835 15.9381C23.1422 15.5065 20.6163 16.0686 18.7671 17.5227L26.2097 24.9654C28.1265 22.811 29.4314 20.1007 29.8525 17.1064C28.5775 16.5298 27.2726 16.1339 25.9835 15.9381Z" fill="white"/>
<path d="M16.2726 17.5152L14.9998 16.2424L5.03357 26.2087C7.68336 28.5664 11.174 29.9995 14.9998 29.9995C15.0854 29.9995 15.1706 29.9976 15.2559 29.9962C14.7474 28.7586 14.3909 27.4975 14.2009 26.2464C13.6818 22.8274 14.4161 19.7635 16.2726 17.5152Z" fill="white"/>
<path d="M13.727 12.4836L14.9998 13.7564L24.966 3.7901C22.3163 1.4324 18.8257 -0.000682068 14.9998 -0.000682068C14.9142 -0.000682068 14.829 0.00113434 14.7437 0.00254059C15.2522 1.2401 15.6087 2.5011 15.7987 3.75237C16.3178 7.17137 15.5835 10.2352 13.727 12.4836Z" fill="white"/>
<path d="M15.9386 25.982C16.1343 27.2709 16.5304 28.5759 17.1069 29.8509C20.1013 29.4299 22.8116 28.1251 24.9659 26.2082L17.5233 18.7656C16.0692 20.6149 15.5072 23.1407 15.9386 25.982Z" fill="white"/>
<path d="M17.5159 16.2714C19.7643 14.4149 22.8281 13.6806 26.2472 14.1997C27.4984 14.3897 28.7595 14.7463 29.997 15.2547C29.9984 15.1694 30.0002 15.0842 30.0002 14.9986C30.0002 11.1727 28.5671 7.68209 26.2094 5.0323L16.2431 14.9986L17.5159 16.2714Z" fill="white"/>
</g>
<defs>
<clipPath id="clip0_1_1182">
<rect width="29.5302" height="29.5302" fill="white" transform="scale(1.01591)"/>
</clipPath>
</defs>
</svg>
