<svg width="18" height="17" viewBox="0 0 18 17" fill="none" xmlns="http://www.w3.org/2000/svg">
<path d="M17.4139 12.0001L11.8966 2.06898C11.1552 0.732765 10.1293 0 9.00001 0C7.87069 0 6.84482 0.732765 6.10343 2.06898L0.586142 12.0001C-0.11214 13.2674 -0.189727 14.4829 0.370623 15.4398C0.930973 16.3967 2.03443 16.9226 3.48272 16.9226H14.5173C15.9656 16.9226 17.0691 16.3967 17.6294 15.4398C18.1897 14.4829 18.1122 13.2587 17.4139 12.0001ZM8.35345 6.03454C8.35345 5.68109 8.64656 5.38798 9.00001 5.38798C9.35346 5.38798 9.64657 5.68109 9.64657 6.03454V10.3449C9.64657 10.6984 9.35346 10.9915 9.00001 10.9915C8.64656 10.9915 8.35345 10.6984 8.35345 10.3449V6.03454ZM9.61209 13.5432C9.56898 13.5777 9.52588 13.6122 9.48277 13.6467C9.43105 13.6812 9.37932 13.707 9.3276 13.7243C9.27588 13.7501 9.22415 13.7674 9.1638 13.776C9.11208 13.7846 9.05174 13.7932 9.00001 13.7932C8.94829 13.7932 8.88794 13.7846 8.8276 13.776C8.77587 13.7674 8.72415 13.7501 8.67242 13.7243C8.6207 13.707 8.56897 13.6812 8.51725 13.6467C8.47414 13.6122 8.43104 13.5777 8.38794 13.5432C8.23276 13.3794 8.13793 13.1553 8.13793 12.9312C8.13793 12.707 8.23276 12.4829 8.38794 12.3191C8.43104 12.2846 8.47414 12.2501 8.51725 12.2156C8.56897 12.1811 8.6207 12.1553 8.67242 12.138C8.72415 12.1122 8.77587 12.0949 8.8276 12.0863C8.93967 12.0605 9.06036 12.0605 9.1638 12.0863C9.22415 12.0949 9.27588 12.1122 9.3276 12.138C9.37932 12.1553 9.43105 12.1811 9.48277 12.2156C9.52588 12.2501 9.56898 12.2846 9.61209 12.3191C9.76726 12.4829 9.86209 12.707 9.86209 12.9312C9.86209 13.1553 9.76726 13.3794 9.61209 13.5432Z" fill="white"/>
</svg>
