<svg width="24" height="24" viewBox="0 0 24 24" fill="none" xmlns="http://www.w3.org/2000/svg">
<path d="M7 10.75V17M7 7V7.0125M12 17V10.75M17 17V13.25C17 12.587 16.7366 11.9511 16.2678 11.4822C15.7989 11.0134 15.163 10.75 14.5 10.75C13.837 10.75 13.2011 11.0134 12.7322 11.4822C12.2634 11.9511 12 12.587 12 13.25M2 4.5C2 3.83696 2.26339 3.20107 2.73223 2.73223C3.20107 2.26339 3.83696 2 4.5 2H19.5C20.163 2 20.7989 2.26339 21.2678 2.73223C21.7366 3.20107 22 3.83696 22 4.5V19.5C22 20.163 21.7366 20.7989 21.2678 21.2678C20.7989 21.7366 20.163 22 19.5 22H4.5C3.83696 22 3.20107 21.7366 2.73223 21.2678C2.26339 20.7989 2 20.163 2 19.5V4.5Z" stroke="#7D8592" stroke-width="1.5" stroke-linecap="round" stroke-linejoin="round"/>
</svg>
