<svg width="96" height="96" viewBox="0 0 96 96" fill="none" xmlns="http://www.w3.org/2000/svg">
<g clip-path="url(#clip0_137_5317)">
<path d="M95.8613 95.264H0.138728C0.101935 95.264 0.0666491 95.2437 0.0406325 95.2077C0.0146159 95.1717 0 95.1229 0 95.0719C0 95.021 0.0146159 94.9722 0.0406325 94.9361C0.0666491 94.9001 0.101935 94.8799 0.138728 94.8799H95.8613C95.8981 94.8799 95.9333 94.9001 95.9594 94.9361C95.9854 94.9722 96 95.021 96 95.0719C96 95.1229 95.9854 95.1717 95.9594 95.2077C95.9333 95.2437 95.8981 95.264 95.8613 95.264Z" fill="#F7BBED"/>
<path d="M86.3867 61.7705H30.063C29.8238 61.7705 29.5945 61.902 29.4254 62.1361C29.2563 62.3702 29.1613 62.6877 29.1613 63.0188C29.1613 63.3499 29.2563 63.6674 29.4254 63.9015C29.5945 64.1356 29.8238 64.2671 30.063 64.2671H31.6584V94.1305C31.6584 94.4616 31.7534 94.7791 31.9225 95.0132C32.0916 95.2473 32.3209 95.3788 32.5601 95.3788C32.7993 95.3788 33.0286 95.2473 33.1977 95.0132C33.3668 94.7791 33.4618 94.4616 33.4618 94.1305L33.4755 64.2671H82.8491V94.1305C82.8491 94.4616 82.9441 94.7791 83.1132 95.0132C83.2823 95.2473 83.5117 95.3788 83.7508 95.3788C83.99 95.3788 84.2194 95.2473 84.3885 95.0132C84.5576 94.7791 84.6526 94.4616 84.6526 94.1305V64.9253L84.9149 64.2671H86.3867C86.6258 64.2671 86.8552 64.1356 87.0243 63.9015C87.1934 63.6674 87.2884 63.3499 87.2884 63.0188C87.2884 62.6877 87.1934 62.3702 87.0243 62.1361C86.8552 61.902 86.6258 61.7705 86.3867 61.7705Z" fill="#F7BBED"/>
<path d="M61.2894 62.4234H44.2283C43.898 62.4229 43.5813 62.241 43.3477 61.9176C43.1141 61.5943 42.9827 61.1558 42.9823 60.6985V47.6951C42.9827 47.2378 43.1141 46.7994 43.3477 46.476C43.5813 46.1526 43.898 45.9707 44.2283 45.9702H61.2894C61.6197 45.9707 61.9365 46.1526 62.1701 46.476C62.4037 46.7994 62.535 47.2378 62.5354 47.6951V60.6985C62.535 61.1558 62.4037 61.5943 62.1701 61.9176C61.9365 62.241 61.6197 62.4229 61.2894 62.4234Z" fill="#3F3D56"/>
<path d="M61.2893 47.2979H44.2284C44.1523 47.2981 44.0794 47.34 44.0256 47.4145C43.9717 47.489 43.9414 47.59 43.9413 47.6954V60.6989C43.9414 60.8043 43.9717 60.9053 44.0256 60.9798C44.0794 61.0543 44.1523 61.0962 44.2284 61.0964H61.2893C61.3654 61.0962 61.4384 61.0543 61.4922 60.9798C61.546 60.9053 61.5763 60.8043 61.5764 60.6989V47.6954C61.5763 47.59 61.546 47.489 61.4922 47.4145C61.4384 47.34 61.3654 47.2981 61.2893 47.2979Z" fill="white"/>
<path d="M54.2139 56.5045C54.2139 56.5045 52.1715 55.853 51.0482 57.0474C49.9248 58.2419 52.4778 60.9565 52.4778 60.9565L54.2139 56.5045Z" fill="#2F2E41"/>
<path d="M52.8589 55.2734C53.9229 55.2734 54.7854 54.0794 54.7854 52.6064C54.7854 51.1335 53.9229 49.9395 52.8589 49.9395C51.7949 49.9395 50.9324 51.1335 50.9324 52.6064C50.9324 54.0794 51.7949 55.2734 52.8589 55.2734Z" fill="#A0616A"/>
<path d="M51.3692 48.8628C51.4976 48.5609 51.6839 48.3141 51.9073 48.1495C52.1307 47.9849 52.3826 47.9091 52.6353 47.9302C52.8995 47.9761 53.1574 48.076 53.4004 48.2267L54.6598 48.9068C54.9857 49.0828 55.3426 49.2984 55.484 49.7413C55.6153 50.1524 55.5174 50.6271 55.4183 51.0551L54.9471 53.0895C54.8949 52.6291 54.8053 52.1783 54.68 51.7457C54.5527 51.3101 54.3227 50.9471 54.0274 50.7155C53.7003 50.4832 53.3147 50.488 52.9474 50.5125C52.4273 50.5471 51.8618 50.6387 51.4923 51.1466C51.2961 51.435 51.1631 51.7946 51.1088 52.1835C51.0553 52.5704 51.0283 52.9634 51.0283 53.3572C50.8151 52.8497 50.6354 52.3165 50.4915 51.7641C50.3732 51.3528 50.3058 50.9169 50.2921 50.4746C50.2797 50.0285 50.3867 49.5917 50.5924 49.248C50.6968 49.08 50.8331 48.9557 50.9858 48.8892C51.1385 48.8226 51.3016 48.8165 51.4567 48.8714L51.3692 48.8628Z" fill="#2F2E41"/>
<path d="M57.459 58.8172C57.4409 58.7271 57.404 58.6464 57.3529 58.5853C57.3018 58.5241 57.2388 58.4852 57.1718 58.4734C57.1674 58.4691 57.1628 58.4653 57.1579 58.4619L54.2819 56.2306C54.1998 56.1669 54.1031 56.1495 54.0119 56.182C53.9207 56.2145 53.8421 56.2944 53.7924 56.4051L53.0059 58.1681L51.8211 56.528L51.8023 56.5019C51.7415 56.4177 51.6612 56.3659 51.5755 56.3555C51.4899 56.3452 51.4043 56.3769 51.3339 56.4452L48.9702 58.7365C48.9661 58.7365 48.9619 58.7385 48.9577 58.7385C48.8446 58.7646 48.7413 58.8433 48.6649 58.9617C48.5884 59.08 48.5435 59.2309 48.5374 59.3895L48.4763 61.0968H57.9154L57.459 58.8172Z" fill="#FAF6FD"/>
<path d="M62.727 60.8313H60.9059C60.9059 60.7609 60.8857 60.6934 60.8498 60.6436C60.8138 60.5939 60.7651 60.5659 60.7142 60.5659H60.1391C60.0883 60.5659 60.0395 60.5939 60.0036 60.6436C59.9676 60.6934 59.9474 60.7609 59.9474 60.8313H59.3723C59.3723 60.7609 59.3521 60.6934 59.3162 60.6436C59.2802 60.5939 59.2315 60.5659 59.1806 60.5659H58.6055C58.5547 60.5659 58.5059 60.5939 58.47 60.6436C58.434 60.6934 58.4138 60.7609 58.4138 60.8313H57.8387C57.8387 60.7609 57.8186 60.6934 57.7826 60.6436C57.7467 60.5939 57.6979 60.5659 57.647 60.5659H57.072C57.0211 60.5659 56.9724 60.5939 56.9364 60.6436C56.9005 60.6934 56.8803 60.7609 56.8803 60.8313H56.3052C56.3052 60.7609 56.285 60.6934 56.249 60.6436C56.2131 60.5939 56.1643 60.5659 56.1135 60.5659H55.5384C55.4875 60.5659 55.4388 60.5939 55.4028 60.6436C55.3669 60.6934 55.3467 60.7609 55.3467 60.8313H54.7716C54.7716 60.7609 54.7514 60.6934 54.7154 60.6436C54.6795 60.5939 54.6307 60.5659 54.5799 60.5659H54.0048C53.954 60.5659 53.9052 60.5939 53.8693 60.6436C53.8333 60.6934 53.8131 60.7609 53.8131 60.8313H53.238C53.238 60.7609 53.2178 60.6934 53.1819 60.6436C53.1459 60.5939 53.0972 60.5659 53.0463 60.5659H52.4712C52.4204 60.5659 52.3716 60.5939 52.3357 60.6436C52.2997 60.6934 52.2795 60.7609 52.2795 60.8313H51.7044C51.7044 60.7609 51.6842 60.6934 51.6483 60.6436C51.6123 60.5939 51.5636 60.5659 51.5127 60.5659H50.9376C50.8868 60.5659 50.838 60.5939 50.8021 60.6436C50.7661 60.6934 50.7459 60.7609 50.7459 60.8313H50.1709C50.1709 60.7609 50.1507 60.6934 50.1147 60.6436C50.0788 60.5939 50.03 60.5659 49.9792 60.5659H49.4041C49.3532 60.5659 49.3045 60.5939 49.2685 60.6436C49.2326 60.6934 49.2124 60.7609 49.2124 60.8313H48.6373C48.6373 60.7609 48.6171 60.6934 48.5811 60.6436C48.5452 60.5939 48.4964 60.5659 48.4456 60.5659H47.8705C47.8196 60.5659 47.7709 60.5939 47.7349 60.6436C47.699 60.6934 47.6788 60.7609 47.6788 60.8313H47.1037C47.1037 60.7609 47.0835 60.6934 47.0475 60.6436C47.0116 60.5939 46.9628 60.5659 46.912 60.5659H46.3369C46.2861 60.5659 46.2373 60.5939 46.2014 60.6436C46.1654 60.6934 46.1452 60.7609 46.1452 60.8313H45.5701C45.5701 60.7609 45.5499 60.6934 45.514 60.6436C45.478 60.5939 45.4293 60.5659 45.3784 60.5659H44.8033C44.7525 60.5659 44.7037 60.5939 44.6678 60.6436C44.6318 60.6934 44.6116 60.7609 44.6116 60.8313H42.7905C42.6381 60.8316 42.4921 60.9156 42.3844 61.0649C42.2768 61.2142 42.2163 61.4165 42.2163 61.6274C42.2163 61.8383 42.2768 62.0407 42.3844 62.1899C42.4921 62.3392 42.6381 62.4232 42.7905 62.4235H62.727C62.8796 62.4235 63.0258 62.3397 63.1337 62.1904C63.2415 62.0411 63.3021 61.8386 63.3021 61.6274C63.3021 61.4163 63.2415 61.2138 63.1337 61.0645C63.0258 60.9152 62.8796 60.8313 62.727 60.8313Z" fill="#3F3D56"/>
<path d="M39.826 56.2081V61.4944H30.259C30.0027 61.5067 29.7472 61.4475 29.5078 61.3202C29.2683 61.193 29.0498 61.0003 28.8654 60.7536C28.6809 60.507 28.5342 60.2114 28.434 59.8846C28.3337 59.5577 28.2821 59.2063 28.2821 58.8513C28.2821 58.4962 28.3337 58.1448 28.434 57.818C28.5342 57.4911 28.6809 57.1956 28.8654 56.9489C29.0498 56.7023 29.2683 56.5096 29.5078 56.3823C29.7472 56.255 30.0027 56.1958 30.259 56.2081H39.826Z" fill="#BBC4F7"/>
<path d="M40.0609 61.4535C40.0609 61.5074 40.0454 61.5591 40.0179 61.5973C39.9904 61.6354 39.953 61.6568 39.9141 61.6568H30.0885C29.5549 61.6568 29.0431 61.3634 28.6657 60.841C28.2884 60.3186 28.0764 59.6101 28.0764 58.8714C28.0764 58.1326 28.2884 57.4241 28.6657 56.9018C29.0431 56.3794 29.5549 56.0859 30.0885 56.0859H39.9141C39.953 56.0859 39.9904 56.1074 40.0179 56.1455C40.0455 56.1836 40.0609 56.2353 40.0609 56.2893C40.0609 56.3432 40.0455 56.3949 40.0179 56.433C39.9904 56.4712 39.953 56.4926 39.9141 56.4926H30.0885C29.6331 56.4931 29.1964 56.744 28.8745 57.1901C28.5525 57.6361 28.3717 58.2409 28.3717 58.8714C28.3717 59.5019 28.5525 60.1066 28.8745 60.5527C29.1964 60.9987 29.6331 61.2496 30.0885 61.2502H39.9141C39.953 61.2502 39.9904 61.2716 40.0179 61.3098C40.0454 61.3479 40.0609 61.3996 40.0609 61.4535Z" fill="#FAF6FD"/>
<path d="M39.826 57.428H29.5452C29.5413 57.428 29.5375 57.427 29.5339 57.425C29.5303 57.423 29.527 57.42 29.5243 57.4162C29.5216 57.4124 29.5194 57.4079 29.5179 57.403C29.5164 57.398 29.5156 57.3927 29.5156 57.3873C29.5156 57.382 29.5164 57.3767 29.5179 57.3717C29.5194 57.3668 29.5216 57.3623 29.5243 57.3585C29.527 57.3547 29.5303 57.3517 29.5339 57.3497C29.5375 57.3477 29.5413 57.3466 29.5452 57.3467H39.826C39.8338 57.3468 39.8412 57.3511 39.8467 57.3587C39.8521 57.3663 39.8552 57.3766 39.8552 57.3873C39.8552 57.3981 39.8521 57.4084 39.8467 57.416C39.8412 57.4236 39.8338 57.4279 39.826 57.428Z" fill="#F7BBED"/>
<path d="M39.826 58.4041H29.5452C29.5413 58.4041 29.5375 58.4031 29.5339 58.4011C29.5303 58.399 29.527 58.396 29.5243 58.3923C29.5216 58.3885 29.5194 58.384 29.5179 58.379C29.5164 58.3741 29.5156 58.3688 29.5156 58.3634C29.5156 58.3581 29.5164 58.3527 29.5179 58.3478C29.5194 58.3428 29.5216 58.3383 29.5243 58.3346C29.527 58.3308 29.5303 58.3278 29.5339 58.3258C29.5375 58.3237 29.5413 58.3227 29.5452 58.3228H39.826C39.8338 58.3228 39.8412 58.3271 39.8467 58.3348C39.8521 58.3424 39.8552 58.3527 39.8552 58.3634C39.8552 58.3742 39.8521 58.3845 39.8467 58.3921C39.8412 58.3997 39.8338 58.404 39.826 58.4041Z" fill="#F7BBED"/>
<path d="M39.826 59.3797H29.5452C29.5413 59.3797 29.5375 59.3787 29.5339 59.3767C29.5303 59.3746 29.527 59.3716 29.5243 59.3679C29.5216 59.3641 29.5194 59.3596 29.5179 59.3546C29.5164 59.3497 29.5156 59.3444 29.5156 59.339C29.5156 59.3336 29.5164 59.3283 29.5179 59.3234C29.5194 59.3184 29.5216 59.3139 29.5243 59.3102C29.527 59.3064 29.5303 59.3034 29.5339 59.3014C29.5375 59.2993 29.5413 59.2983 29.5452 59.2983H39.826C39.8338 59.2984 39.8412 59.3027 39.8467 59.3103C39.8521 59.318 39.8552 59.3283 39.8552 59.339C39.8552 59.3497 39.8521 59.36 39.8467 59.3677C39.8412 59.3753 39.8338 59.3796 39.826 59.3797Z" fill="#F7BBED"/>
<path d="M39.826 60.3557H29.5452C29.5413 60.3558 29.5375 60.3548 29.5339 60.3527C29.5303 60.3507 29.527 60.3477 29.5243 60.3439C29.5216 60.3402 29.5194 60.3357 29.5179 60.3307C29.5164 60.3258 29.5156 60.3204 29.5156 60.3151C29.5156 60.3097 29.5164 60.3044 29.5179 60.2995C29.5194 60.2945 29.5216 60.29 29.5243 60.2862C29.527 60.2825 29.5303 60.2795 29.5339 60.2774C29.5375 60.2754 29.5413 60.2744 29.5452 60.2744H39.826C39.8338 60.2745 39.8412 60.2788 39.8467 60.2864C39.8521 60.294 39.8552 60.3043 39.8552 60.3151C39.8552 60.3258 39.8521 60.3361 39.8467 60.3437C39.8412 60.3514 39.8338 60.3557 39.826 60.3557Z" fill="#F7BBED"/>
<path d="M38.0225 50.6388V55.9251H28.4555C28.1992 55.9374 27.9437 55.8782 27.7043 55.7509C27.4649 55.6236 27.2464 55.4309 27.0619 55.1843C26.8774 54.9376 26.7307 54.6421 26.6305 54.3152C26.5303 53.9884 26.4786 53.637 26.4786 53.2819C26.4786 52.9269 26.5303 52.5755 26.6305 52.2486C26.7307 51.9218 26.8774 51.6262 27.0619 51.3796C27.2464 51.1329 27.4649 50.9402 27.7043 50.813C27.9437 50.6857 28.1992 50.6265 28.4555 50.6388H38.0225Z" fill="#BBC4F7"/>
<path d="M38.2575 55.8842C38.2575 55.9381 38.242 55.9898 38.2144 56.0279C38.1869 56.066 38.1495 56.0875 38.1106 56.0875H28.2851C28.0208 56.0875 27.7592 56.0154 27.5151 55.8755C27.2709 55.7355 27.0491 55.5303 26.8623 55.2716C26.6754 55.013 26.5272 54.7059 26.4261 54.368C26.325 54.03 26.2729 53.6678 26.2729 53.302C26.2729 52.9363 26.325 52.574 26.4261 52.2361C26.5272 51.8982 26.6754 51.5911 26.8623 51.3324C27.0491 51.0738 27.2709 50.8686 27.5151 50.7286C27.7592 50.5886 28.0208 50.5166 28.2851 50.5166H38.1106C38.1495 50.5166 38.1869 50.538 38.2144 50.5762C38.242 50.6143 38.2575 50.666 38.2575 50.7199C38.2575 50.7738 38.242 50.8256 38.2144 50.8637C38.1869 50.9018 38.1495 50.9232 38.1106 50.9232H28.2851C27.8296 50.9238 27.3929 51.1747 27.071 51.6207C26.7491 52.0668 26.5682 52.6715 26.5682 53.302C26.5682 53.9326 26.7491 54.5373 27.071 54.9834C27.3929 55.4294 27.8296 55.6803 28.2851 55.6809H38.1106C38.1495 55.6809 38.1869 55.7023 38.2144 55.7404C38.242 55.7786 38.2575 55.8303 38.2575 55.8842Z" fill="#3F3D56"/>
<path d="M38.0226 51.8587H27.7417C27.7379 51.8587 27.734 51.8577 27.7304 51.8557C27.7268 51.8536 27.7236 51.8506 27.7208 51.8469C27.7181 51.8431 27.7159 51.8386 27.7144 51.8336C27.7129 51.8287 27.7122 51.8234 27.7122 51.818C27.7122 51.8126 27.7129 51.8073 27.7144 51.8024C27.7159 51.7974 27.7181 51.7929 27.7208 51.7892C27.7236 51.7854 27.7268 51.7824 27.7304 51.7804C27.734 51.7783 27.7379 51.7773 27.7417 51.7773H38.0226C38.0303 51.7774 38.0378 51.7817 38.0432 51.7894C38.0487 51.797 38.0518 51.8073 38.0518 51.818C38.0518 51.8287 38.0487 51.839 38.0432 51.8467C38.0378 51.8543 38.0303 51.8586 38.0226 51.8587Z" fill="#F7BBED"/>
<path d="M38.0226 52.8347H27.7417C27.7379 52.8348 27.734 52.8338 27.7304 52.8317C27.7268 52.8297 27.7236 52.8267 27.7208 52.8229C27.7181 52.8192 27.7159 52.8147 27.7144 52.8097C27.7129 52.8048 27.7122 52.7994 27.7122 52.7941C27.7122 52.7887 27.7129 52.7834 27.7144 52.7785C27.7159 52.7735 27.7181 52.769 27.7208 52.7652C27.7236 52.7614 27.7268 52.7585 27.7304 52.7564C27.734 52.7544 27.7379 52.7534 27.7417 52.7534H38.0226C38.0303 52.7535 38.0378 52.7578 38.0432 52.7654C38.0487 52.773 38.0518 52.7833 38.0518 52.7941C38.0518 52.8048 38.0487 52.8151 38.0432 52.8227C38.0378 52.8304 38.0303 52.8347 38.0226 52.8347Z" fill="#F7BBED"/>
<path d="M38.0226 53.8103H27.7417C27.7379 53.8104 27.734 53.8093 27.7304 53.8073C27.7268 53.8053 27.7236 53.8023 27.7208 53.7985C27.7181 53.7947 27.7159 53.7902 27.7144 53.7853C27.7129 53.7803 27.7122 53.775 27.7122 53.7697C27.7122 53.7643 27.7129 53.759 27.7144 53.754C27.7159 53.7491 27.7181 53.7446 27.7208 53.7408C27.7236 53.737 27.7268 53.734 27.7304 53.732C27.734 53.73 27.7379 53.729 27.7417 53.729H38.0226C38.0303 53.7291 38.0378 53.7334 38.0432 53.741C38.0487 53.7486 38.0518 53.7589 38.0518 53.7697C38.0518 53.7804 38.0487 53.7907 38.0432 53.7983C38.0378 53.8059 38.0303 53.8103 38.0226 53.8103Z" fill="#F7BBED"/>
<path d="M38.0226 54.7864H27.7417C27.7379 54.7864 27.734 54.7854 27.7304 54.7834C27.7268 54.7814 27.7236 54.7784 27.7208 54.7746C27.7181 54.7708 27.7159 54.7663 27.7144 54.7614C27.7129 54.7564 27.7122 54.7511 27.7122 54.7457C27.7122 54.7404 27.7129 54.7351 27.7144 54.7301C27.7159 54.7252 27.7181 54.7207 27.7208 54.7169C27.7236 54.7131 27.7268 54.7101 27.7304 54.7081C27.734 54.7061 27.7379 54.705 27.7417 54.7051H38.0226C38.0303 54.7052 38.0378 54.7095 38.0432 54.7171C38.0487 54.7247 38.0518 54.735 38.0518 54.7457C38.0518 54.7565 38.0487 54.7668 38.0432 54.7744C38.0378 54.782 38.0303 54.7863 38.0226 54.7864Z" fill="#F7BBED"/>
<path d="M49.1518 80.2841V75.6749C49.1518 75.4712 49.0934 75.2758 48.9893 75.1317C48.8852 74.9877 48.7441 74.9067 48.5969 74.9067H35.9726C35.8255 74.9067 35.6843 74.9877 35.5803 75.1317C35.4762 75.2758 35.4177 75.4712 35.4177 75.6749V80.2841H49.1518Z" fill="#F7BBED"/>
<path d="M49.1518 82.0127H35.4177V87.9662H49.1518V82.0127Z" fill="#F7BBED"/>
<path d="M35.4177 89.6943V94.3035C35.4177 94.5072 35.4762 94.7026 35.5803 94.8467C35.6843 94.9907 35.8255 95.0717 35.9726 95.0717H48.5969C48.7441 95.0717 48.8852 94.9907 48.9893 94.8467C49.0934 94.7026 49.1518 94.5072 49.1518 94.3035V89.6943H35.4177Z" fill="#F7BBED"/>
<path d="M42.2155 78.3637C42.4454 78.3637 42.6317 78.1058 42.6317 77.7876C42.6317 77.4694 42.4454 77.2114 42.2155 77.2114C41.9856 77.2114 41.7993 77.4694 41.7993 77.7876C41.7993 78.1058 41.9856 78.3637 42.2155 78.3637Z" fill="white"/>
<path d="M42.2155 86.0454C42.4454 86.0454 42.6317 85.7874 42.6317 85.4692C42.6317 85.151 42.4454 84.8931 42.2155 84.8931C41.9856 84.8931 41.7993 85.151 41.7993 85.4692C41.7993 85.7874 41.9856 86.0454 42.2155 86.0454Z" fill="white"/>
<path d="M42.2377 93.5649C42.4676 93.5649 42.6539 93.3069 42.6539 92.9887C42.6539 92.6705 42.4676 92.4126 42.2377 92.4126C42.0079 92.4126 41.8215 92.6705 41.8215 92.9887C41.8215 93.3069 42.0079 93.5649 42.2377 93.5649Z" fill="white"/>
<path d="M47.5948 69.6515V74.9378H38.0278C37.7715 74.9501 37.516 74.8909 37.2765 74.7636C37.0371 74.6363 36.8186 74.4436 36.6342 74.197C36.4497 73.9503 36.303 73.6548 36.2028 73.3279C36.1025 73.0011 36.0509 72.6497 36.0509 72.2946C36.0509 71.9396 36.1025 71.5882 36.2028 71.2613C36.303 70.9345 36.4497 70.6389 36.6342 70.3923C36.8186 70.1456 37.0371 69.9529 37.2765 69.8257C37.516 69.6984 37.7715 69.6392 38.0278 69.6515H47.5948Z" fill="#BBC4F7"/>
<path d="M47.8298 74.8969C47.8298 74.9508 47.8143 75.0025 47.7868 75.0406C47.7592 75.0787 47.7219 75.1002 47.6829 75.1002H37.8574C37.593 75.1005 37.3312 75.0287 37.0869 74.8888C36.8426 74.749 36.6206 74.5438 36.4335 74.2852C36.2465 74.0265 36.0982 73.7193 35.9969 73.3812C35.8957 73.0431 35.8436 72.6807 35.8436 72.3147C35.8436 71.9488 35.8957 71.5864 35.9969 71.2483C36.0982 70.9102 36.2465 70.603 36.4335 70.3443C36.6206 70.0856 36.8426 69.8805 37.0869 69.7407C37.3312 69.6008 37.593 69.529 37.8574 69.5293H47.6829C47.7219 69.5293 47.7593 69.5507 47.7868 69.5888C47.8143 69.627 47.8298 69.6787 47.8298 69.7326C47.8298 69.7865 47.8143 69.8382 47.7868 69.8764C47.7593 69.9145 47.7219 69.9359 47.6829 69.9359H37.8574C37.4019 69.9365 36.9653 70.1874 36.6433 70.6334C36.3214 71.0795 36.1406 71.6842 36.1406 72.3147C36.1406 72.9453 36.3214 73.55 36.6433 73.9961C36.9653 74.4421 37.4019 74.693 37.8574 74.6935H47.6829C47.7219 74.6936 47.7592 74.715 47.7868 74.7531C47.8143 74.7912 47.8298 74.8429 47.8298 74.8969Z" fill="#3F3D56"/>
<path d="M47.5948 70.8714H37.314C37.3101 70.8714 37.3063 70.8704 37.3027 70.8684C37.2991 70.8663 37.2958 70.8633 37.2931 70.8596C37.2903 70.8558 37.2882 70.8513 37.2867 70.8463C37.2852 70.8414 37.2844 70.8361 37.2844 70.8307C37.2844 70.8253 37.2852 70.82 37.2867 70.8151C37.2882 70.8101 37.2903 70.8056 37.2931 70.8019C37.2958 70.7981 37.2991 70.7951 37.3027 70.7931C37.3063 70.791 37.3101 70.79 37.314 70.79H47.5948C47.6026 70.7901 47.61 70.7944 47.6155 70.8021C47.6209 70.8097 47.624 70.82 47.624 70.8307C47.624 70.8414 47.6209 70.8517 47.6155 70.8594C47.61 70.867 47.6026 70.8713 47.5948 70.8714Z" fill="#F7BBED"/>
<path d="M47.5948 71.8474H37.314C37.3101 71.8475 37.3063 71.8465 37.3027 71.8444C37.2991 71.8424 37.2958 71.8394 37.2931 71.8356C37.2903 71.8318 37.2882 71.8274 37.2867 71.8224C37.2852 71.8174 37.2844 71.8121 37.2844 71.8068C37.2844 71.8014 37.2852 71.7961 37.2867 71.7912C37.2882 71.7862 37.2903 71.7817 37.2931 71.7779C37.2958 71.7741 37.2991 71.7712 37.3027 71.7691C37.3063 71.7671 37.3101 71.7661 37.314 71.7661H47.5948C47.6026 71.7662 47.61 71.7705 47.6155 71.7781C47.6209 71.7857 47.624 71.796 47.624 71.8068C47.624 71.8175 47.6209 71.8278 47.6155 71.8354C47.61 71.843 47.6026 71.8474 47.5948 71.8474Z" fill="#F7BBED"/>
<path d="M47.5948 72.823H37.314C37.3101 72.8231 37.3063 72.822 37.3027 72.82C37.2991 72.818 37.2958 72.815 37.2931 72.8112C37.2903 72.8074 37.2882 72.8029 37.2867 72.798C37.2852 72.793 37.2844 72.7877 37.2844 72.7824C37.2844 72.777 37.2852 72.7717 37.2867 72.7667C37.2882 72.7618 37.2903 72.7573 37.2931 72.7535C37.2958 72.7497 37.2991 72.7467 37.3027 72.7447C37.3063 72.7427 37.3101 72.7417 37.314 72.7417H47.5948C47.6026 72.7418 47.61 72.7461 47.6155 72.7537C47.6209 72.7613 47.624 72.7716 47.624 72.7824C47.624 72.7931 47.6209 72.8034 47.6155 72.811C47.61 72.8186 47.6026 72.823 47.5948 72.823Z" fill="#F7BBED"/>
<path d="M47.5948 73.7991H37.314C37.3101 73.7991 37.3063 73.7981 37.3027 73.7961C37.2991 73.7941 37.2958 73.7911 37.2931 73.7873C37.2903 73.7835 37.2882 73.779 37.2867 73.7741C37.2852 73.7691 37.2844 73.7638 37.2844 73.7584C37.2844 73.7531 37.2852 73.7478 37.2867 73.7428C37.2882 73.7379 37.2903 73.7334 37.2931 73.7296C37.2958 73.7258 37.2991 73.7228 37.3027 73.7208C37.3063 73.7188 37.3101 73.7177 37.314 73.7178H47.5948C47.6026 73.7178 47.61 73.7222 47.6155 73.7298C47.6209 73.7374 47.624 73.7477 47.624 73.7584C47.624 73.7692 47.6209 73.7795 47.6155 73.7871C47.61 73.7947 47.6026 73.799 47.5948 73.7991Z" fill="#F7BBED"/>
<path d="M34.6974 35.1488V1.44447C34.6977 1.06151 34.8077 0.694355 35.0033 0.423559C35.199 0.152762 35.4642 0.000435609 35.7408 0H54.9864C55.263 0.000438145 55.5283 0.152766 55.7239 0.423561C55.9195 0.694357 56.0295 1.06151 56.0298 1.44447V35.1488C56.0295 35.5317 55.9195 35.8989 55.7239 36.1697C55.5283 36.4405 55.263 36.5928 54.9864 36.5933H35.7408C35.4642 36.5928 35.199 36.4405 35.0033 36.1697C34.8077 35.8989 34.6977 35.5317 34.6974 35.1488ZM35.7408 0.320994C35.5257 0.321328 35.3194 0.439802 35.1672 0.650422C35.0151 0.861043 34.9295 1.14661 34.9293 1.44447V35.1488C34.9295 35.4466 35.0151 35.7322 35.1672 35.9428C35.3194 36.1535 35.5257 36.2719 35.7408 36.2723H54.9864C55.2016 36.2719 55.4079 36.1535 55.56 35.9428C55.7121 35.7322 55.7977 35.4466 55.798 35.1488V1.44447C55.7977 1.14661 55.7121 0.861043 55.56 0.650422C55.4079 0.439802 55.2016 0.321328 54.9864 0.320994H35.7408Z" fill="#E6E6E6"/>
<path d="M46.4429 15.4787V8.55818C46.443 8.36669 46.498 8.18311 46.5958 8.04771C46.6936 7.91231 46.8263 7.83615 46.9646 7.83594H51.2009C51.3393 7.83615 51.4719 7.91231 51.5697 8.04771C51.6675 8.18311 51.7225 8.36669 51.7227 8.55818V15.4787C51.7225 15.6702 51.6675 15.8538 51.5697 15.9892C51.4719 16.1246 51.3393 16.2008 51.2009 16.201H46.9646C46.8263 16.2008 46.6936 16.1246 46.5958 15.9892C46.498 15.8538 46.443 15.6702 46.4429 15.4787Z" fill="#FAF6FD"/>
<path d="M38.2113 18.6887V11.7681C38.2115 11.5766 38.2665 11.3931 38.3643 11.2577C38.4621 11.1223 38.5947 11.0461 38.733 11.0459H42.9694C43.1077 11.0461 43.2403 11.1223 43.3381 11.2577C43.4359 11.3931 43.4909 11.5766 43.4911 11.7681V18.6887C43.4909 18.8802 43.4359 19.0638 43.3381 19.1992C43.2403 19.3346 43.1077 19.4107 42.9694 19.4109H38.733C38.5947 19.4107 38.4621 19.3346 38.3643 19.1991C38.2665 19.0637 38.2115 18.8802 38.2113 18.6887Z" fill="#F7BBED"/>
<path d="M44.8197 28.4787V21.5582C44.8199 21.3667 44.8749 21.1831 44.9727 21.0477C45.0705 20.9123 45.2031 20.8361 45.3414 20.8359H49.5778C49.7161 20.8361 49.8487 20.9123 49.9465 21.0477C50.0443 21.1831 50.0993 21.3667 50.0995 21.5582V28.4787C50.0993 28.6702 50.0443 28.8538 49.9465 28.9892C49.8487 29.1246 49.7161 29.2008 49.5778 29.201H45.3414C45.2031 29.2008 45.0705 29.1246 44.9727 28.9892C44.8749 28.8538 44.8199 28.6702 44.8197 28.4787Z" fill="#FF6584"/>
<path d="M70.1359 60.1192H65.777C65.7357 60.1191 65.6948 60.1323 65.6577 60.1576L64.5576 60.92C64.5214 60.9413 64.4905 60.9769 64.4688 61.0223C64.4471 61.0677 64.4355 61.121 64.4355 61.1754C64.4355 61.2299 64.4471 61.2832 64.4688 61.3286C64.4905 61.374 64.5214 61.4096 64.5576 61.4309L65.6577 62.1933C65.6948 62.2186 65.7357 62.2318 65.777 62.2317H70.1359C70.1959 62.2365 70.255 62.2084 70.3001 62.1534C70.3453 62.0984 70.373 62.0209 70.3773 61.9379V60.413C70.373 60.3299 70.3453 60.2525 70.3001 60.1975C70.255 60.1425 70.1959 60.1144 70.1359 60.1192Z" fill="#3F3D56"/>
<path d="M70.3773 60.413V61.9379C70.373 62.021 70.3453 62.0984 70.3001 62.1534C70.255 62.2084 70.1959 62.2365 70.1359 62.2317H69.2675V60.1192H70.1359C70.1959 60.1144 70.255 60.1425 70.3001 60.1975C70.3453 60.2525 70.373 60.3299 70.3773 60.413Z" fill="#FAF6FD"/>
<path d="M70.1031 48.7115C70.3005 48.5936 70.5137 48.5347 70.7287 48.5388C70.9438 48.5428 71.1557 48.6098 71.3508 48.7351C71.5458 48.8605 71.7195 49.0415 71.8605 49.2663C72.0014 49.4911 72.1065 49.7545 72.1688 50.0395C72.1882 50.1298 72.2031 50.2219 72.2132 50.315L78.3087 54.4994L79.7193 53.2053L81.4745 56.0025L79.3206 58.4242C79.0616 58.7131 78.7422 58.8788 78.4098 58.8965C78.0773 58.9143 77.7497 58.7832 77.4753 58.5227L71.2909 52.6022C71.2449 52.6293 71.1979 52.653 71.1501 52.6733C70.9443 52.7595 70.7276 52.7845 70.5143 52.7467C70.301 52.7089 70.0959 52.6091 69.9124 52.4538C69.7289 52.2986 69.5711 52.0915 69.4495 51.846C69.3278 51.6005 69.245 51.3221 69.2065 51.0292C69.1951 50.9442 69.1875 50.8583 69.1839 50.772C69.1668 50.3397 69.2457 49.9105 69.41 49.5421C69.5743 49.1738 69.8162 48.8839 70.1031 48.7115Z" fill="#FFB8B8"/>
<path d="M82.7988 74.4741H76.1384C76.1384 74.7391 69.2742 74.9542 69.2742 74.9542C69.1664 75.0665 69.0682 75.1954 68.9815 75.3383C68.7207 75.7688 68.5782 76.3129 68.5791 76.8747V77.2588C68.5793 77.8954 68.762 78.5059 69.0872 78.956C69.4124 79.4062 69.8533 79.6592 70.3132 79.6594H82.7988C83.2585 79.6588 83.6994 79.4058 84.0245 78.9557C84.3496 78.5056 84.5325 77.8953 84.5329 77.2588V76.8747C84.5322 76.2383 84.3493 75.6282 84.0242 75.1782C83.6992 74.7282 83.2585 74.475 82.7988 74.4741Z" fill="#3F3D56"/>
<path d="M75.5538 95.6963H77.3573V79.5643H75.5538V95.6963Z" fill="#C2A4F4"/>
<path d="M70.4209 95.6086C70.4209 95.8784 73.1538 95.713 76.5249 95.713C79.8961 95.713 82.629 95.8784 82.629 95.6086C82.629 95.3389 79.8961 93.1997 76.5249 93.1997C73.1538 93.1997 70.4209 95.3389 70.4209 95.6086Z" fill="#3F3D56"/>
<path d="M72.0489 93.7176L70.3483 93.7174L69.5391 87.6108L72.0492 87.611L72.0489 93.7176Z" fill="#FFB8B8"/>
<path d="M72.4828 95.9999L66.9988 95.9996V95.9036C66.9988 95.5156 67.054 95.1313 67.1613 94.7728C67.2685 94.4143 67.4258 94.0886 67.624 93.8142C67.8222 93.5398 68.0575 93.3221 68.3165 93.1736C68.5754 93.0251 68.853 92.9487 69.1333 92.9487H69.1335L72.4829 92.9489L72.4828 95.9999Z" fill="#2F2E41"/>
<path d="M69.5052 89.9311L66.1146 79.4054C65.8315 78.5183 65.8002 77.5161 66.0269 76.5984C66.2536 75.6807 66.7217 74.915 67.338 74.4536L74.6924 68.9942L78.0484 68.599L81.1441 68.2095L81.1664 68.2618C81.195 68.3286 81.8606 69.9201 81.4107 71.6652C81.0694 72.9889 80.1817 74.0228 78.7722 74.7383C75.4824 76.4082 71.6819 77.8355 70.2007 78.3715C70.1352 78.3947 70.074 78.4368 70.0212 78.495C69.9683 78.5533 69.9249 78.6263 69.8939 78.7094C69.8628 78.7916 69.8444 78.8817 69.8397 78.9743C69.835 79.0668 69.8442 79.1596 69.8667 79.247L73.0167 89.0442C73.0496 89.1684 73.0615 89.3015 73.0514 89.4331C73.0412 89.5647 73.0094 89.6913 72.9584 89.8032C72.9073 89.9151 72.8384 90.0092 72.7569 90.0784C72.6754 90.1475 72.5835 90.1899 72.4883 90.2021L70.1345 90.4393C70.1146 90.442 70.0947 90.4433 70.0749 90.4433C69.9543 90.4432 69.8364 90.3948 69.7353 90.3039C69.6342 90.213 69.5543 90.0835 69.5052 89.9311Z" fill="#2F2E41"/>
<path d="M72.8813 93.7176L71.1807 93.7174L70.3715 87.6108L72.8816 87.611L72.8813 93.7176Z" fill="#FFB8B8"/>
<path d="M73.3151 95.9999L67.8311 95.9996V95.9036C67.8311 95.5156 67.8863 95.1313 67.9935 94.7728C68.1008 94.4143 68.258 94.0886 68.4562 93.8142C68.6545 93.5398 68.8898 93.3221 69.1487 93.1736C69.4077 93.0251 69.6853 92.9487 69.9656 92.9487H69.9657L73.3152 92.9489L73.3151 95.9999Z" fill="#2F2E41"/>
<path d="M70.4763 90.5073L67.0856 79.9816C66.8025 79.0944 66.7712 78.0922 66.998 77.1746C67.2247 76.2569 67.6928 75.4912 68.309 75.0298L75.6635 69.5703L79.0195 69.1752L82.1152 68.7856L82.1375 68.838C82.166 68.9047 82.8316 70.4963 82.3817 72.2414C82.0404 73.5651 81.1527 74.599 79.7433 75.3145C76.4534 76.9844 72.653 78.4117 71.1718 78.9477C71.1063 78.9708 71.0451 79.0129 70.9922 79.0712C70.9394 79.1294 70.896 79.2025 70.865 79.2856C70.8339 79.3678 70.8154 79.4579 70.8108 79.5504C70.8061 79.6429 70.8153 79.7358 70.8378 79.8231L73.9878 89.6204C74.0207 89.7446 74.0326 89.8777 74.0224 90.0093C74.0123 90.1409 73.9805 90.2675 73.9294 90.3794C73.8784 90.4912 73.8094 90.5854 73.7279 90.6545C73.6464 90.7237 73.5545 90.766 73.4593 90.7783L71.1056 91.0155C71.0856 91.0181 71.0657 91.0195 71.0459 91.0195C70.9254 91.0194 70.8074 90.971 70.7063 90.8801C70.6052 90.7892 70.5253 90.6597 70.4763 90.5073Z" fill="#A4DCF4"/>
<path d="M68.7863 58.3523C67.3615 55.7287 66.2351 52.8187 65.4464 49.7233C65.4007 49.5382 65.4039 49.3366 65.4555 49.1544C65.5072 48.9723 65.6038 48.8214 65.7282 48.7286L70.6039 45.1121C70.6827 45.0531 70.7703 45.0199 70.8599 45.0148C70.9494 45.0098 71.0386 45.0331 71.1207 45.083C71.2043 45.1333 71.2785 45.2093 71.3377 45.3053C71.3969 45.4013 71.4394 45.5147 71.4622 45.6369C72.0296 48.6197 73.0964 51.3757 74.576 53.6819C74.6369 53.7758 74.6816 53.8876 74.7065 54.009C74.7315 54.1304 74.7361 54.258 74.72 54.3822C74.7046 54.5044 74.6692 54.6202 74.6166 54.7206C74.5639 54.8211 74.4955 54.9036 74.4163 54.9618L69.5407 58.5784C69.4159 58.6705 69.2717 58.6983 69.1335 58.6569C68.9954 58.6155 68.8724 58.5076 68.7863 58.3523Z" fill="#F7BBED"/>
<path d="M69.119 58.0063C69.1453 58.0516 69.1821 58.0828 69.2232 58.0946C69.2642 58.1063 69.307 58.0979 69.344 58.0706L74.2197 54.454C74.2434 54.4369 74.2639 54.4125 74.2796 54.3826C74.2953 54.3527 74.3058 54.3182 74.3103 54.2817C74.3153 54.2433 74.3139 54.2037 74.3061 54.1661C74.2983 54.1285 74.2843 54.094 74.2652 54.0651C72.7419 51.691 71.6438 48.8538 71.0596 45.7831C71.0528 45.7451 71.0398 45.7099 71.0216 45.6801C71.0033 45.6502 70.9803 45.6267 70.9544 45.6112C70.93 45.5961 70.9034 45.589 70.8767 45.5905C70.8499 45.5921 70.8238 45.6022 70.8004 45.62L65.9248 49.2366C65.8879 49.2642 65.8591 49.3088 65.8434 49.3627C65.8277 49.4166 65.8261 49.4764 65.8389 49.5318C66.6135 52.5717 67.7197 55.4297 69.119 58.0063Z" fill="white"/>
<path d="M84.9839 57.3879L81.1654 59.3966L80.2332 55.8118C80.1094 55.3357 80.1111 54.8145 80.2381 54.3401C80.3651 53.8656 80.6091 53.4686 80.9271 53.2192C81.2488 52.9669 81.625 52.8821 81.9878 52.9802C82.3507 53.0782 82.6762 53.3527 82.9057 53.754L84.9839 57.3879Z" fill="#FAF6FD"/>
<path d="M75.2716 71.5918C75.1912 71.5131 75.1239 71.4116 75.0741 71.2941C75.0242 71.1766 74.993 71.0457 74.9826 70.9103C74.4935 64.59 74.8341 59.644 76.0238 55.7894C76.2334 55.1246 76.5491 54.5342 76.9471 54.0625C77.3452 53.5909 77.8153 53.2503 78.3221 53.0663L81.4088 52.8506L81.4248 52.8613C82.1213 53.3336 82.6893 54.104 83.0446 55.0584C83.4 56.0127 83.5237 57.1002 83.3974 58.1596C82.4046 61.7822 81.5733 65.5539 82.2073 68.5966C82.2339 68.7238 82.2416 68.8571 82.2301 68.9886C82.2185 69.12 82.188 69.2469 82.1402 69.3616C82.0938 69.4725 82.0315 69.569 81.9572 69.6453C81.8829 69.7215 81.798 69.7759 81.7079 69.8051L75.8288 71.7411C75.7336 71.7724 75.6347 71.7753 75.5386 71.7496C75.4425 71.7239 75.3515 71.6701 75.2716 71.5918Z" fill="#FAF6FD"/>
<path d="M80.3786 51.2546C82.2604 51.2546 83.7859 49.1427 83.7859 46.5377C83.7859 43.9326 82.2604 41.8208 80.3786 41.8208C78.4968 41.8208 76.9713 43.9326 76.9713 46.5377C76.9713 49.1427 78.4968 51.2546 80.3786 51.2546Z" fill="#FFB8B8"/>
<path d="M70.9239 50.2733L68.2684 51.8961C68.1674 51.9576 68.0529 51.9612 67.9501 51.906C67.8472 51.8508 67.7643 51.7413 67.7196 51.6016L67.654 51.3957C67.6095 51.2559 67.6069 51.0974 67.6468 50.9549C67.6867 50.8125 67.7657 50.6978 67.8666 50.6359L70.5221 49.0132C70.6231 48.9517 70.7376 48.9481 70.8405 49.0033C70.9434 49.0585 71.0262 49.168 71.0709 49.3076L71.1366 49.5136C71.181 49.6534 71.1836 49.8119 71.1437 49.9544C71.1039 50.0968 71.0248 50.2115 70.9239 50.2733Z" fill="#F7BBED"/>
<path d="M71.895 52.7699L69.2395 54.3926C69.1385 54.4542 69.024 54.4577 68.9211 54.4025C68.8182 54.3473 68.7354 54.2379 68.6907 54.0982L68.625 53.8923C68.5806 53.7524 68.578 53.5939 68.6179 53.4515C68.6577 53.3091 68.7368 53.1944 68.8377 53.1325L71.4932 51.5098C71.5942 51.4483 71.7087 51.4447 71.8116 51.4999C71.9144 51.5551 71.9973 51.6645 72.042 51.8042L72.1077 52.0102C72.1521 52.15 72.1547 52.3085 72.1148 52.4509C72.0749 52.5934 71.9959 52.7081 71.895 52.7699Z" fill="#F7BBED"/>
<path d="M73.9429 62.5217L68.0228 56.0563C67.9757 56.0792 67.9277 56.0988 67.8791 56.115C67.6701 56.1826 67.4532 56.1887 67.2425 56.1327C67.0317 56.0768 66.8318 55.96 66.6558 55.7902C66.4786 55.6201 66.3296 55.3997 66.219 55.1436C66.1083 54.8874 66.0384 54.6015 66.014 54.305C65.9743 53.8309 66.0514 53.3522 66.233 52.9465C66.4145 52.5407 66.6898 52.2318 67.0141 52.0699C67.2165 51.9694 67.4319 51.9292 67.6463 51.952C67.8607 51.9748 68.0692 52.06 68.2582 52.2021C68.4471 52.3442 68.6122 52.54 68.7427 52.7766C68.8732 53.0132 68.9661 53.2853 69.0154 53.575C69.0306 53.6669 69.0413 53.7601 69.0472 53.8539L74.9405 58.5605L76.4071 57.3916L78.0318 60.3361L75.7547 62.5829C75.4881 62.8437 75.1679 62.9787 74.8415 62.9677C74.5151 62.9567 74.2 62.8003 73.9429 62.5217Z" fill="#FFB8B8"/>
<path d="M78.7541 61.2528L75.3762 58.073L76.9637 54.9605C77.1745 54.5472 77.484 54.2503 77.8376 54.1224C78.1912 53.9945 78.5661 54.0437 78.896 54.2614C79.2297 54.4816 79.4956 54.8598 79.6455 55.3276C79.7955 55.7954 79.8197 56.322 79.7137 56.8123L78.7541 61.2528Z" fill="#FAF6FD"/>
<path d="M79.1295 45.8352C78.2537 46.6649 77.1038 47.5178 76.2094 46.6342C75.6221 46.054 75.437 44.9797 75.6752 44.0368C76.1035 42.3413 77.2802 41.5949 78.4055 41.0227C79.8683 40.2789 81.461 39.6872 82.9712 40.2198C84.4813 40.7525 85.8159 42.7766 85.5433 44.9006C85.324 46.6087 84.1601 48.03 84.3254 49.7497C84.4917 51.4805 85.8977 52.3915 87.139 52.7008C88.3803 53.0102 89.7693 53.1095 90.6614 54.3438C91.7994 55.9184 91.5152 58.7327 90.4444 60.3952C89.3736 62.0576 87.7577 62.8111 86.1919 63.3234C84.1172 64.0022 81.8734 64.3589 79.903 63.2324C77.9327 62.106 76.3993 59.0738 76.9701 56.2304C77.2112 55.0294 77.7792 54.0144 78.3281 53.0262C78.877 52.038 79.4328 51.0047 79.6422 49.7924C79.8166 48.782 79.6875 47.609 79.2035 46.8512C79.1155 46.7185 79.0601 46.5507 79.0453 46.3717C79.0305 46.1928 79.057 46.0119 79.1211 45.8551L79.1295 45.8352Z" fill="#2F2E41"/>
<path d="M15.1314 68.7528C14.2534 69.18 13.3107 69.287 12.3942 69.0635C11.4776 68.84 10.6181 68.2935 9.8984 67.4767C8.06552 65.347 7.49086 61.8384 7.02327 58.5897C6.56227 55.3866 6.10127 52.1835 5.64026 48.9805L8.53575 51.7405C10.618 53.7253 12.7472 55.7737 14.1889 58.6486C15.6307 61.5235 16.26 65.4481 15.1016 68.5589" fill="#E6E6E6"/>
<path d="M14.8839 80.3866C15.177 77.4314 15.4783 74.4384 15.2728 71.4516C15.0902 68.799 14.5056 66.2081 13.3155 64.0838C12.6837 62.9584 11.915 61.9941 11.0439 61.2343C10.8168 61.0358 10.6077 61.5342 10.8339 61.7318C12.3411 63.0505 13.5069 64.9978 14.1632 67.2928C14.888 69.845 15.0044 72.6271 14.8795 75.3383C14.804 76.9779 14.6439 78.6067 14.4826 80.2334C14.4699 80.307 14.4778 80.3845 14.5048 80.4502C14.5318 80.516 14.5758 80.5652 14.6279 80.5878C14.6811 80.6076 14.7379 80.5976 14.7858 80.5599C14.8337 80.5223 14.869 80.46 14.8839 80.3866H14.8839Z" fill="#BBC4F7"/>
<path d="M12.0612 75.1577C11.6847 75.95 11.1671 76.5946 10.5583 77.0296C9.94951 77.4646 9.27008 77.6752 8.58543 77.6411C6.82592 77.5255 5.35905 75.8255 4.03859 74.2115L0.132935 69.4378L2.71783 69.2665C4.57674 69.1433 6.4836 69.0285 8.25415 69.822C10.0247 70.6156 11.6576 72.5255 11.9813 75.0625" fill="#E6E6E6"/>
<path d="M15.7121 82.0854C14.3015 78.6302 12.6654 74.7902 9.74196 73.5629C8.92909 73.2228 8.07675 73.1009 7.23083 73.2039C6.96422 73.2358 7.0308 73.8047 7.29692 73.7729C8.71487 73.6099 10.1301 74.1283 11.3043 75.2406C12.4342 76.3053 13.314 77.7855 14.0586 79.3553C14.5147 80.3168 14.9233 81.3191 15.3319 82.32C15.4625 82.6399 15.8442 82.409 15.7121 82.0854Z" fill="#BBC4F7"/>
<path d="M17.9722 85.722C17.9247 84.9596 17.727 84.2299 17.4006 83.6124C17.0742 82.9948 16.6317 82.5131 16.1212 82.2197V80.2222H13.7011V82.2826C13.2158 82.5905 12.7981 83.071 12.4906 83.6752C12.1831 84.2794 11.9969 84.9857 11.9509 85.722L11.3818 94.8795H18.5413L17.9722 85.722Z" fill="#BBC4F7"/>
</g>
<defs>
<clipPath id="clip0_137_5317">
<rect width="96" height="96" fill="white"/>
</clipPath>
</defs>
</svg>
