<svg width="25" height="25" viewBox="0 0 25 25" fill="none" xmlns="http://www.w3.org/2000/svg">
<g clip-path="url(#clip0_117_3524)">
<path d="M18.2692 8.89397H25V5.76897C25 3.78074 23.3825 2.16321 21.3942 2.16321H3.60576C1.61753 2.16321 0 3.78074 0 5.76897V19.2305C0 21.2187 1.61753 22.8363 3.60576 22.8363H21.3942C23.3825 22.8363 25 21.2187 25 19.2305V16.1055H18.2692C16.281 16.1055 14.6635 14.488 14.6635 12.4997C14.6635 10.5115 16.281 8.89397 18.2692 8.89397Z" fill="#2675FF"/>
<path d="M18.2696 10.3368C17.0767 10.3368 16.1061 11.3073 16.1061 12.5003C16.1061 13.6932 17.0766 14.6637 18.2696 14.6637H25.0003V10.3368H18.2696V10.3368ZM19.2311 13.2214H18.2696C17.8713 13.2214 17.5484 12.8985 17.5484 12.5003C17.5484 12.102 17.8713 11.7791 18.2696 11.7791H19.2311C19.6294 11.7791 19.9523 12.102 19.9523 12.5003C19.9523 12.8985 19.6294 13.2214 19.2311 13.2214Z" fill="#2675FF"/>
</g>
<defs>
<clipPath id="clip0_117_3524">
<rect width="25" height="25" fill="white"/>
</clipPath>
</defs>
</svg>
