<svg width="80" height="84" viewBox="0 0 80 84" fill="none" xmlns="http://www.w3.org/2000/svg">
<path opacity="0.2" d="M35.9555 2.04208C37.9645 -0.680664 42.0355 -0.680668 44.0445 2.04207L48.0698 7.49751C49.3465 9.22777 51.5824 9.95427 53.6323 9.30487L60.0954 7.25734C63.3211 6.23544 66.6147 8.62834 66.6396 12.0119L66.6895 18.7915C66.7053 20.9417 68.0872 22.8437 70.1273 23.5232L76.5596 25.6657C79.7699 26.735 81.0279 30.6067 79.0592 33.3588L75.1147 38.8729C73.8636 40.6217 73.8636 42.9727 75.1147 44.7216L79.0592 50.2357C81.0279 52.9877 79.7699 56.8595 76.5596 57.9288L70.1273 60.0713C68.0872 60.7508 66.7053 62.6528 66.6895 64.803L66.6396 71.5826C66.6147 74.9661 63.3211 77.359 60.0954 76.3371L53.6323 74.2896C51.5824 73.6402 49.3465 74.3667 48.0698 76.097L44.0445 81.5524C42.0355 84.2751 37.9645 84.2752 35.9555 81.5524L31.9302 76.097C30.6535 74.3667 28.4176 73.6402 26.3677 74.2896L19.9046 76.3371C16.6789 77.359 13.3853 74.9661 13.3604 71.5826L13.3105 64.803C13.2947 62.6528 11.9128 60.7508 9.87273 60.0713L3.44041 57.9288C0.23012 56.8595 -1.0279 52.9877 0.940768 50.2357L4.88531 44.7216C6.13638 42.9727 6.13638 40.6218 4.88531 38.8729L0.940771 33.3588C-1.0279 30.6067 0.230116 26.735 3.4404 25.6657L9.87272 23.5232C11.9128 22.8437 13.2947 20.9417 13.3105 18.7915L13.3604 12.0119C13.3853 8.62834 16.6789 6.23544 19.9046 7.25734L26.3677 9.30487C28.4176 9.95427 30.6535 9.22778 31.9302 7.49751L35.9555 2.04208Z" fill="#F65160"/>
</svg>
