<svg width="160" height="167" viewBox="0 0 160 167" fill="none" xmlns="http://www.w3.org/2000/svg">
<path opacity="0.2" d="M71.8297 4.07954C75.8431 -1.35979 83.976 -1.3598 87.9894 4.07953L96.0309 14.9781C98.5814 18.4347 103.048 19.886 107.143 18.5887L120.055 14.4983C126.499 12.4568 133.079 17.2372 133.128 23.9967L133.228 37.5405C133.26 41.8361 136.02 45.6358 140.096 46.9932L152.946 51.2733C159.359 53.4095 161.873 61.1443 157.94 66.6421L150.06 77.6579C147.56 81.1517 147.56 85.8483 150.06 89.3421L157.94 100.358C161.873 105.856 159.359 113.591 152.946 115.727L140.096 120.007C136.02 121.364 133.26 125.164 133.228 129.46L133.128 143.003C133.079 149.763 126.499 154.543 120.055 152.502L107.143 148.411C103.048 147.114 98.5814 148.565 96.0309 152.022L87.9894 162.92C83.976 168.36 75.8431 168.36 71.8297 162.92L63.7882 152.022C61.2378 148.565 56.771 147.114 52.6759 148.411L39.7641 152.502C33.3201 154.543 26.7404 149.763 26.6907 143.003L26.591 129.46C26.5593 125.164 23.7987 121.364 19.7231 120.007L6.87304 115.727C0.45972 113.591 -2.05348 105.856 1.87941 100.358L9.75958 89.3421C12.2589 85.8483 12.2589 81.1517 9.75958 77.6579L1.87942 66.6421C-2.05348 61.1443 0.459712 53.4095 6.87303 51.2733L19.7231 46.9932C23.7987 45.6358 26.5593 41.8361 26.591 37.5405L26.6907 23.9967C26.7404 17.2372 33.3201 12.4568 39.7641 14.4983L52.6759 18.5887C56.771 19.886 61.2378 18.4347 63.7882 14.9781L71.8297 4.07954Z" fill="#EF691E"/>
</svg>
