<svg width="24" height="24" viewBox="0 0 24 24" fill="none" xmlns="http://www.w3.org/2000/svg">
<g clip-path="url(#clip0_0_290)">
<path d="M10.3924 9.50442C10.2484 10.1044 9.50439 9.76842 9.81639 9.84042L5.08839 8.64042C4.82439 8.56842 4.68039 8.30442 4.75239 8.06442C4.82439 7.80042 5.08839 7.65642 5.32839 7.72842L10.0564 8.95242C10.2964 9.00042 10.4404 9.26442 10.3924 9.50442ZM10.0324 12.1444L5.30439 10.9204C5.04039 10.8484 4.77639 11.0164 4.72839 11.2564C4.65639 11.5204 4.82439 11.7844 5.06439 11.8324L9.79239 13.0564C9.48039 12.9844 10.2244 13.2724 10.3684 12.7204C10.4404 12.4804 10.2964 12.2164 10.0324 12.1444ZM8.61639 14.9524L5.30439 14.0884C5.04039 14.0164 4.77639 14.1844 4.72839 14.4244C4.65639 14.6884 4.82439 14.9524 5.06439 15.0004L8.37639 15.8644C8.06439 15.7924 8.80839 16.0804 8.95239 15.5284C9.02439 15.2884 8.88039 15.0244 8.61639 14.9524ZM21.6004 4.56042V17.1604C21.6004 17.3764 21.4564 17.5684 21.2404 17.6164L12.1204 19.8964C12.0484 19.9204 11.9524 19.9204 11.8804 19.8964L2.76039 17.6164C2.54439 17.5684 2.40039 17.3764 2.40039 17.1604V4.56042C2.40039 4.24842 2.68839 4.00842 3.00039 4.10442L12.0004 6.36042L21.0004 4.10442C21.3124 4.00842 21.6004 4.24842 21.6004 4.56042ZM11.5204 7.22442L3.36039 5.18442V16.7764L11.5204 18.8164V7.22442ZM20.6404 5.18442L12.4804 7.22442V18.8164L20.6404 16.7764V5.18442ZM19.2484 8.06442C19.1764 7.80042 18.9124 7.65642 18.6724 7.72842L13.9444 8.95242C13.6804 9.02442 13.5364 9.28842 13.6084 9.52842C13.7524 10.1284 14.4964 9.79242 14.1844 9.86442L18.9124 8.64042C19.1764 8.56842 19.3204 8.30442 19.2484 8.06442ZM19.2484 11.2804C19.1764 11.0164 18.9124 10.8724 18.6724 10.9444L13.9444 12.1684C13.6804 12.2404 13.5364 12.5044 13.6084 12.7444C13.7524 13.3204 14.4964 13.0084 14.1844 13.0804L18.9124 11.8564C19.1764 11.7844 19.3204 11.5204 19.2484 11.2804ZM17.8324 14.8084C17.7604 14.5444 17.4964 14.4004 17.2564 14.4724L13.9444 15.3364C13.6804 15.4084 13.5364 15.6724 13.6084 15.9124C13.7524 16.5124 14.4964 16.1764 14.1844 16.2484L17.4964 15.4084C17.7604 15.3364 17.9044 15.0724 17.8324 14.8084Z" fill="#A4DCF4"/>
<path d="M394.56 -223.2V180.96H-33.5995V-223.2H394.56ZM396.48 -225.12H-35.5195V182.88H396.48V-225.12Z" fill="#0000FF"/>
</g>
<defs>
<clipPath id="clip0_0_290">
<rect width="24" height="24" fill="white"/>
</clipPath>
</defs>
</svg>
