<svg width="22" height="22" viewBox="0 0 22 22" fill="none" xmlns="http://www.w3.org/2000/svg">
<path d="M10.9997 11.9167C11.5059 11.9167 11.9163 11.5063 11.9163 11C11.9163 10.4938 11.5059 10.0834 10.9997 10.0834C10.4934 10.0834 10.083 10.4938 10.083 11C10.083 11.5063 10.4934 11.9167 10.9997 11.9167Z" fill="#060518" stroke="#060518" stroke-width="2" stroke-linecap="round" stroke-linejoin="round"/>
<path d="M10.9997 5.49996C11.5059 5.49996 11.9163 5.08955 11.9163 4.58329C11.9163 4.07703 11.5059 3.66663 10.9997 3.66663C10.4934 3.66663 10.083 4.07703 10.083 4.58329C10.083 5.08955 10.4934 5.49996 10.9997 5.49996Z" fill="#060518" stroke="#060518" stroke-width="2" stroke-linecap="round" stroke-linejoin="round"/>
<path d="M10.9997 18.3333C11.5059 18.3333 11.9163 17.9229 11.9163 17.4167C11.9163 16.9104 11.5059 16.5 10.9997 16.5C10.4934 16.5 10.083 16.9104 10.083 17.4167C10.083 17.9229 10.4934 18.3333 10.9997 18.3333Z" fill="#060518" stroke="#060518" stroke-width="2" stroke-linecap="round" stroke-linejoin="round"/>
</svg>
