<svg width="32" height="32" viewBox="0 0 32 32" fill="none" xmlns="http://www.w3.org/2000/svg">
<path d="M21.5867 2.66666H10.4133C5.56 2.66666 2.66667 5.55999 2.66667 10.4133V21.5733C2.66667 26.44 5.56 29.3333 10.4133 29.3333H21.5733C26.4267 29.3333 29.32 26.44 29.32 21.5867V10.4133C29.3333 5.55999 26.44 2.66666 21.5867 2.66666ZM13.2533 17.6933C12.3467 19.0533 11.0933 20.16 9.62667 20.8933C9.49334 20.96 9.33334 21 9.18667 21C8.81334 21 8.46667 20.8 8.29334 20.4533C8.04001 19.96 8.24001 19.36 8.74667 19.1067C9.90667 18.5333 10.8933 17.6533 11.6 16.5867C11.84 16.2267 11.84 15.7733 11.6 15.4133C10.88 14.3467 9.89334 13.4667 8.74667 12.8933C8.24001 12.6533 8.04001 12.0533 8.29334 11.5467C8.53334 11.0533 9.13334 10.8533 9.62667 11.1067C11.0933 11.84 12.3467 12.9467 13.2533 14.3067C13.9467 15.3333 13.9467 16.6667 13.2533 17.6933ZM22.6667 21H17.3333C16.7867 21 16.3333 20.5467 16.3333 20C16.3333 19.4533 16.7867 19 17.3333 19H22.6667C23.2133 19 23.6667 19.4533 23.6667 20C23.6667 20.5467 23.2133 21 22.6667 21Z" fill="white"/>
</svg>
