<svg width="32" height="32" viewBox="0 0 32 32" fill="none" xmlns="http://www.w3.org/2000/svg">
<path d="M21.5867 2.66666H10.4133C5.56 2.66666 2.66666 5.55999 2.66666 10.4133V21.5733C2.66666 26.44 5.56 29.3333 10.4133 29.3333H21.5733C26.4267 29.3333 29.32 26.44 29.32 21.5867V10.4133C29.3333 5.55999 26.44 2.66666 21.5867 2.66666ZM15.3333 23C15.3333 23.48 14.8533 23.8 14.4133 23.6133C12.8 22.92 10.6933 22.28 9.22666 22.0933L8.97333 22.0667C8.16 21.96 7.49333 21.2 7.49333 20.3733V10.1067C7.49333 9.07999 8.32 8.31999 9.33333 8.39999C11 8.53332 13.4667 9.33332 15.0133 10.2133C15.2267 10.3333 15.3333 10.56 15.3333 10.7867V23ZM24.5067 20.36C24.5067 21.1867 23.84 21.9467 23.0267 22.0533L22.7467 22.08C21.2933 22.28 19.2 22.9067 17.5867 23.5867C17.1467 23.7733 16.6667 23.4533 16.6667 22.9733V10.7733C16.6667 10.5333 16.7867 10.3067 17 10.1867C18.5467 9.31999 20.96 8.54666 22.6 8.39999H22.6533C23.68 8.39999 24.5067 9.22666 24.5067 10.2533V20.36Z" fill="#7D8592"/>
</svg>
