<svg width="22" height="22" viewBox="0 0 22 22" fill="none" xmlns="http://www.w3.org/2000/svg">
<g clip-path="url(#clip0_117_3669)">
<path d="M10.0834 3.66699H3.66671C3.18048 3.66699 2.71416 3.86015 2.37034 4.20396C2.02653 4.54778 1.83337 5.0141 1.83337 5.50033V18.3337C1.83337 18.8199 2.02653 19.2862 2.37034 19.63C2.71416 19.9738 3.18048 20.167 3.66671 20.167H16.5C16.9863 20.167 17.4526 19.9738 17.7964 19.63C18.1402 19.2862 18.3334 18.8199 18.3334 18.3337V11.917" stroke="#5669FF" stroke-width="2" stroke-linecap="round" stroke-linejoin="round"/>
<path d="M16.9584 2.29122C17.323 1.92655 17.8176 1.72168 18.3334 1.72168C18.8491 1.72168 19.3437 1.92655 19.7084 2.29122C20.073 2.6559 20.2779 3.1505 20.2779 3.66622C20.2779 4.18195 20.073 4.67655 19.7084 5.04122L11 13.7496L7.33337 14.6662L8.25004 10.9996L16.9584 2.29122Z" stroke="#5669FF" stroke-width="2" stroke-linecap="round" stroke-linejoin="round"/>
</g>
<defs>
<clipPath id="clip0_117_3669">
<rect width="22" height="22" fill="white"/>
</clipPath>
</defs>
</svg>
