<svg width="23" height="23" viewBox="0 0 23 23" fill="none" xmlns="http://www.w3.org/2000/svg">
<path fill-rule="evenodd" clip-rule="evenodd" d="M16.535 7.09233C16.535 9.95059 14.2819 12.2677 11.5025 12.2677C8.72314 12.2677 6.47001 9.95059 6.47001 7.09233C6.47001 4.23407 8.72314 1.91699 11.5025 1.91699C14.2819 1.91699 16.535 4.23407 16.535 7.09233ZM15.822 15.1836C17.4221 15.5076 18.4668 16.0362 18.9145 16.8888C19.2507 17.5542 19.2507 18.3464 18.9145 19.0118C18.4668 19.8644 17.4636 20.4272 15.8054 20.717C15.0666 20.866 14.3186 20.9629 13.5669 21.0069C12.8705 21.0837 12.1741 21.0837 11.4694 21.0837H10.2009C9.93556 21.0496 9.67854 21.0325 9.42982 21.0325C8.67807 20.9938 7.92999 20.8998 7.19131 20.7511C5.59119 20.4442 4.54655 19.8985 4.09885 19.0459C3.92602 18.7156 3.8349 18.3467 3.83354 17.9716C3.82994 17.5943 3.9183 17.222 4.09056 16.8888C4.52997 16.0362 5.57461 15.482 7.19131 15.1836C7.93324 15.038 8.68388 14.944 9.43811 14.9022C10.8178 14.7911 12.2038 14.7911 13.5835 14.9022C14.3348 14.946 15.0826 15.04 15.822 15.1836Z" fill="#5669FF"/>
</svg>
