<svg width="7" height="7" viewBox="0 0 7 7" fill="none" xmlns="http://www.w3.org/2000/svg">
<path d="M6.85417 2.91667H4.08333V0.145833C4.08333 0.065625 4.01771 0 3.9375 0H3.0625C2.98229 0 2.91667 0.065625 2.91667 0.145833V2.91667H0.145833C0.065625 2.91667 0 2.98229 0 3.0625V3.9375C0 4.01771 0.065625 4.08333 0.145833 4.08333H2.91667V6.85417C2.91667 6.93438 2.98229 7 3.0625 7H3.9375C4.01771 7 4.08333 6.93438 4.08333 6.85417V4.08333H6.85417C6.93438 4.08333 7 4.01771 7 3.9375V3.0625C7 2.98229 6.93438 2.91667 6.85417 2.91667Z" fill="#5669FF"/>
</svg>
