<svg width="22" height="22" viewBox="0 0 22 22" fill="none" xmlns="http://www.w3.org/2000/svg">
<path d="M13.814 22H9.2093V14.5814H8.2372C7.64371 14.5814 7.16279 14.1005 7.16279 13.507V11.5628C7.16279 10.9693 7.64371 10.4884 8.2372 10.4884H9.2093V7.93023C9.2093 5.81209 10.9284 4.09302 13.0465 4.09302H15.8093C16.4028 4.09302 16.8837 4.57394 16.8837 5.16743V7.62327C16.8837 8.21676 16.4028 8.69767 15.8093 8.69767H13.814V10.4884H15.7377C16.0651 10.4884 16.3619 10.6316 16.5665 10.8772C16.7712 11.1228 16.853 11.4502 16.7916 11.7674L16.4028 13.7116C16.3005 14.213 15.8605 14.5712 15.3488 14.5712H13.814V22ZM10.7442 20.4651H12.2791V13.0465H14.9805L15.1851 12.0233H12.2893V8.2372C12.2893 7.64371 12.7702 7.16279 13.3637 7.16279H15.3591V5.62791H13.0465C11.7777 5.62791 10.7442 6.6614 10.7442 7.93023V12.0233H8.69767V13.0465H10.7442V20.4651Z" fill="#7D8592"/>
<path d="M14.0698 22H7.93023C2.37395 22 0 19.626 0 14.0698V7.93023C0 2.37395 2.37395 0 7.93023 0H14.0698C19.626 0 22 2.37395 22 7.93023V14.0698C22 19.626 19.626 22 14.0698 22ZM7.93023 1.53488C3.21302 1.53488 1.53488 3.21302 1.53488 7.93023V14.0698C1.53488 18.787 3.21302 20.4651 7.93023 20.4651H14.0698C18.787 20.4651 20.4651 18.787 20.4651 14.0698V7.93023C20.4651 3.21302 18.787 1.53488 14.0698 1.53488H7.93023Z" fill="#7D8592"/>
</svg>
