<svg width="334" height="602" viewBox="0 0 334 602" fill="none" xmlns="http://www.w3.org/2000/svg">
<mask id="path-1-inside-1_133_4873" fill="white">
<path fill-rule="evenodd" clip-rule="evenodd" d="M166.996 587.182C158.825 587.182 152.201 593.817 152.201 602H29.5903C19.2327 602 14.0539 602 10.0979 599.981C6.61801 598.207 3.78877 595.372 2.01571 591.886C0 587.922 0 582.736 0 572.363V488.639C8.17113 488.639 14.7951 482.004 14.7951 473.82C14.7951 465.637 8.17113 459.002 0 459.002V29.6369C0 19.263 0 14.0761 2.01571 10.1137C3.78877 6.62841 6.61801 3.79475 10.0979 2.01891C14.0539 0 19.2327 0 29.5903 0H304.41C314.767 0 319.946 0 323.902 2.01891C327.382 3.79475 330.211 6.62841 331.984 10.1137C334 14.0761 334 19.263 334 29.6369V459.002C325.829 459.002 319.205 465.637 319.205 473.82C319.205 482.004 325.829 488.639 334 488.639V572.363C334 582.736 334 587.922 331.984 591.886C330.211 595.372 327.382 598.207 323.902 599.981C319.946 602 314.767 602 304.41 602H181.791C181.791 593.817 175.167 587.182 166.996 587.182ZM304.41 473.82C304.41 470.753 306.894 468.263 309.958 468.263C313.022 468.263 315.506 470.753 315.506 473.82C315.506 476.888 313.022 479.377 309.958 479.377C306.894 479.377 304.41 476.888 304.41 473.82ZM295.163 468.263C292.099 468.263 289.615 470.753 289.615 473.82C289.615 476.888 292.099 479.377 295.163 479.377C298.227 479.377 300.711 476.888 300.711 473.82C300.711 470.753 298.227 468.263 295.163 468.263ZM274.819 473.82C274.819 470.753 277.304 468.263 280.368 468.263C283.432 468.263 285.916 470.753 285.916 473.82C285.916 476.888 283.432 479.377 280.368 479.377C277.304 479.377 274.819 476.888 274.819 473.82ZM265.573 468.263C262.508 468.263 260.024 470.753 260.024 473.82C260.024 476.888 262.508 479.377 265.573 479.377C268.637 479.377 271.121 476.888 271.121 473.82C271.121 470.753 268.637 468.263 265.573 468.263ZM245.229 473.82C245.229 470.753 247.713 468.263 250.777 468.263C253.841 468.263 256.326 470.753 256.326 473.82C256.326 476.888 253.841 479.377 250.777 479.377C247.713 479.377 245.229 476.888 245.229 473.82ZM235.982 468.263C232.918 468.263 230.434 470.753 230.434 473.82C230.434 476.888 232.918 479.377 235.982 479.377C239.046 479.377 241.53 476.888 241.53 473.82C241.53 470.753 239.046 468.263 235.982 468.263ZM215.639 473.82C215.639 470.753 218.123 468.263 221.187 468.263C224.251 468.263 226.735 470.753 226.735 473.82C226.735 476.888 224.251 479.377 221.187 479.377C218.123 479.377 215.639 476.888 215.639 473.82ZM191.597 468.263C188.533 468.263 186.049 470.753 186.049 473.82C186.049 476.888 188.533 479.377 191.597 479.377C194.661 479.377 197.145 476.888 197.145 473.82C197.145 470.753 194.661 468.263 191.597 468.263ZM200.844 473.82C200.844 470.753 203.328 468.263 206.392 468.263C209.456 468.263 211.94 470.753 211.94 473.82C211.94 476.888 209.456 479.377 206.392 479.377C203.328 479.377 200.844 476.888 200.844 473.82ZM166.815 460.484C158.848 460.484 152.39 466.952 152.39 474.932C152.39 482.708 158.522 489.046 166.206 489.369C166.552 489.435 166.909 489.469 167.275 489.469C167.836 489.469 168.378 489.387 168.889 489.232C175.873 488.224 181.24 482.208 181.24 474.932C181.24 466.952 174.782 460.484 166.815 460.484ZM136.485 472.709C136.485 469.642 138.969 467.152 142.033 467.152C145.097 467.152 147.581 469.642 147.581 472.709C147.581 475.776 145.097 478.266 142.033 478.266C138.969 478.266 136.485 475.776 136.485 472.709ZM127.238 467.152C124.174 467.152 121.69 469.642 121.69 472.709C121.69 475.776 124.174 478.266 127.238 478.266C130.302 478.266 132.786 475.776 132.786 472.709C132.786 469.642 130.302 467.152 127.238 467.152ZM106.895 472.709C106.895 469.642 109.379 467.152 112.443 467.152C115.507 467.152 117.991 469.642 117.991 472.709C117.991 475.776 115.507 478.266 112.443 478.266C109.379 478.266 106.895 475.776 106.895 472.709ZM97.6478 467.152C94.5838 467.152 92.0997 469.642 92.0997 472.709C92.0997 475.776 94.5838 478.266 97.6478 478.266C100.712 478.266 103.196 475.776 103.196 472.709C103.196 469.642 100.712 467.152 97.6478 467.152ZM77.3045 472.709C77.3045 469.642 79.7886 467.152 82.8527 467.152C85.9168 467.152 88.4009 469.642 88.4009 472.709C88.4009 475.776 85.9168 478.266 82.8527 478.266C79.7886 478.266 77.3045 475.776 77.3045 472.709ZM68.0576 467.152C64.9935 467.152 62.5094 469.642 62.5094 472.709C62.5094 475.776 64.9935 478.266 68.0576 478.266C71.1217 478.266 73.6058 475.776 73.6058 472.709C73.6058 469.642 71.1217 467.152 68.0576 467.152ZM47.7143 472.709C47.7143 469.642 50.1984 467.152 53.2625 467.152C56.3265 467.152 58.8106 469.642 58.8106 472.709C58.8106 475.776 56.3265 478.266 53.2625 478.266C50.1984 478.266 47.7143 475.776 47.7143 472.709ZM23.6722 467.152C20.608 467.152 18.124 469.642 18.124 472.709C18.124 475.776 20.608 478.266 23.6722 478.266C26.7364 478.266 29.2204 475.776 29.2204 472.709C29.2204 469.642 26.7364 467.152 23.6722 467.152ZM32.9192 472.709C32.9192 469.642 35.4031 467.152 38.4673 467.152C41.5314 467.152 44.0155 469.642 44.0155 472.709C44.0155 475.776 41.5314 478.266 38.4673 478.266C35.4031 478.266 32.9192 475.776 32.9192 472.709ZM161.727 498.73C161.727 501.801 164.211 504.287 167.275 504.287C170.339 504.287 172.823 501.801 172.823 498.73C172.823 495.663 170.339 493.173 167.275 493.173C164.211 493.173 161.727 495.663 161.727 498.73ZM161.727 513.549C161.727 516.62 164.211 519.106 167.275 519.106C170.339 519.106 172.823 516.62 172.823 513.549C172.823 510.481 170.339 507.992 167.275 507.992C164.211 507.992 161.727 510.481 161.727 513.549ZM167.275 533.924C164.211 533.924 161.727 531.438 161.727 528.367C161.727 525.3 164.211 522.81 167.275 522.81C170.339 522.81 172.823 525.3 172.823 528.367C172.823 531.438 170.339 533.924 167.275 533.924ZM161.727 543.186C161.727 546.257 164.211 548.742 167.275 548.742C170.339 548.742 172.823 546.257 172.823 543.186C172.823 540.118 170.339 537.629 167.275 537.629C164.211 537.629 161.727 540.118 161.727 543.186ZM167.275 563.561C164.211 563.561 161.727 561.075 161.727 558.004C161.727 554.937 164.211 552.447 167.275 552.447C170.339 552.447 172.823 554.937 172.823 558.004C172.823 561.075 170.339 563.561 167.275 563.561ZM161.727 572.822C161.727 575.894 164.211 578.379 167.275 578.379C170.339 578.379 172.823 575.894 172.823 572.822C172.823 569.755 170.339 567.266 167.275 567.266C164.211 567.266 161.727 569.755 161.727 572.822Z"/>
</mask>
<path fill-rule="evenodd" clip-rule="evenodd" d="M166.996 587.182C158.825 587.182 152.201 593.817 152.201 602H29.5903C19.2327 602 14.0539 602 10.0979 599.981C6.61801 598.207 3.78877 595.372 2.01571 591.886C0 587.922 0 582.736 0 572.363V488.639C8.17113 488.639 14.7951 482.004 14.7951 473.82C14.7951 465.637 8.17113 459.002 0 459.002V29.6369C0 19.263 0 14.0761 2.01571 10.1137C3.78877 6.62841 6.61801 3.79475 10.0979 2.01891C14.0539 0 19.2327 0 29.5903 0H304.41C314.767 0 319.946 0 323.902 2.01891C327.382 3.79475 330.211 6.62841 331.984 10.1137C334 14.0761 334 19.263 334 29.6369V459.002C325.829 459.002 319.205 465.637 319.205 473.82C319.205 482.004 325.829 488.639 334 488.639V572.363C334 582.736 334 587.922 331.984 591.886C330.211 595.372 327.382 598.207 323.902 599.981C319.946 602 314.767 602 304.41 602H181.791C181.791 593.817 175.167 587.182 166.996 587.182ZM304.41 473.82C304.41 470.753 306.894 468.263 309.958 468.263C313.022 468.263 315.506 470.753 315.506 473.82C315.506 476.888 313.022 479.377 309.958 479.377C306.894 479.377 304.41 476.888 304.41 473.82ZM295.163 468.263C292.099 468.263 289.615 470.753 289.615 473.82C289.615 476.888 292.099 479.377 295.163 479.377C298.227 479.377 300.711 476.888 300.711 473.82C300.711 470.753 298.227 468.263 295.163 468.263ZM274.819 473.82C274.819 470.753 277.304 468.263 280.368 468.263C283.432 468.263 285.916 470.753 285.916 473.82C285.916 476.888 283.432 479.377 280.368 479.377C277.304 479.377 274.819 476.888 274.819 473.82ZM265.573 468.263C262.508 468.263 260.024 470.753 260.024 473.82C260.024 476.888 262.508 479.377 265.573 479.377C268.637 479.377 271.121 476.888 271.121 473.82C271.121 470.753 268.637 468.263 265.573 468.263ZM245.229 473.82C245.229 470.753 247.713 468.263 250.777 468.263C253.841 468.263 256.326 470.753 256.326 473.82C256.326 476.888 253.841 479.377 250.777 479.377C247.713 479.377 245.229 476.888 245.229 473.82ZM235.982 468.263C232.918 468.263 230.434 470.753 230.434 473.82C230.434 476.888 232.918 479.377 235.982 479.377C239.046 479.377 241.53 476.888 241.53 473.82C241.53 470.753 239.046 468.263 235.982 468.263ZM215.639 473.82C215.639 470.753 218.123 468.263 221.187 468.263C224.251 468.263 226.735 470.753 226.735 473.82C226.735 476.888 224.251 479.377 221.187 479.377C218.123 479.377 215.639 476.888 215.639 473.82ZM191.597 468.263C188.533 468.263 186.049 470.753 186.049 473.82C186.049 476.888 188.533 479.377 191.597 479.377C194.661 479.377 197.145 476.888 197.145 473.82C197.145 470.753 194.661 468.263 191.597 468.263ZM200.844 473.82C200.844 470.753 203.328 468.263 206.392 468.263C209.456 468.263 211.94 470.753 211.94 473.82C211.94 476.888 209.456 479.377 206.392 479.377C203.328 479.377 200.844 476.888 200.844 473.82ZM166.815 460.484C158.848 460.484 152.39 466.952 152.39 474.932C152.39 482.708 158.522 489.046 166.206 489.369C166.552 489.435 166.909 489.469 167.275 489.469C167.836 489.469 168.378 489.387 168.889 489.232C175.873 488.224 181.24 482.208 181.24 474.932C181.24 466.952 174.782 460.484 166.815 460.484ZM136.485 472.709C136.485 469.642 138.969 467.152 142.033 467.152C145.097 467.152 147.581 469.642 147.581 472.709C147.581 475.776 145.097 478.266 142.033 478.266C138.969 478.266 136.485 475.776 136.485 472.709ZM127.238 467.152C124.174 467.152 121.69 469.642 121.69 472.709C121.69 475.776 124.174 478.266 127.238 478.266C130.302 478.266 132.786 475.776 132.786 472.709C132.786 469.642 130.302 467.152 127.238 467.152ZM106.895 472.709C106.895 469.642 109.379 467.152 112.443 467.152C115.507 467.152 117.991 469.642 117.991 472.709C117.991 475.776 115.507 478.266 112.443 478.266C109.379 478.266 106.895 475.776 106.895 472.709ZM97.6478 467.152C94.5838 467.152 92.0997 469.642 92.0997 472.709C92.0997 475.776 94.5838 478.266 97.6478 478.266C100.712 478.266 103.196 475.776 103.196 472.709C103.196 469.642 100.712 467.152 97.6478 467.152ZM77.3045 472.709C77.3045 469.642 79.7886 467.152 82.8527 467.152C85.9168 467.152 88.4009 469.642 88.4009 472.709C88.4009 475.776 85.9168 478.266 82.8527 478.266C79.7886 478.266 77.3045 475.776 77.3045 472.709ZM68.0576 467.152C64.9935 467.152 62.5094 469.642 62.5094 472.709C62.5094 475.776 64.9935 478.266 68.0576 478.266C71.1217 478.266 73.6058 475.776 73.6058 472.709C73.6058 469.642 71.1217 467.152 68.0576 467.152ZM47.7143 472.709C47.7143 469.642 50.1984 467.152 53.2625 467.152C56.3265 467.152 58.8106 469.642 58.8106 472.709C58.8106 475.776 56.3265 478.266 53.2625 478.266C50.1984 478.266 47.7143 475.776 47.7143 472.709ZM23.6722 467.152C20.608 467.152 18.124 469.642 18.124 472.709C18.124 475.776 20.608 478.266 23.6722 478.266C26.7364 478.266 29.2204 475.776 29.2204 472.709C29.2204 469.642 26.7364 467.152 23.6722 467.152ZM32.9192 472.709C32.9192 469.642 35.4031 467.152 38.4673 467.152C41.5314 467.152 44.0155 469.642 44.0155 472.709C44.0155 475.776 41.5314 478.266 38.4673 478.266C35.4031 478.266 32.9192 475.776 32.9192 472.709ZM161.727 498.73C161.727 501.801 164.211 504.287 167.275 504.287C170.339 504.287 172.823 501.801 172.823 498.73C172.823 495.663 170.339 493.173 167.275 493.173C164.211 493.173 161.727 495.663 161.727 498.73ZM161.727 513.549C161.727 516.62 164.211 519.106 167.275 519.106C170.339 519.106 172.823 516.62 172.823 513.549C172.823 510.481 170.339 507.992 167.275 507.992C164.211 507.992 161.727 510.481 161.727 513.549ZM167.275 533.924C164.211 533.924 161.727 531.438 161.727 528.367C161.727 525.3 164.211 522.81 167.275 522.81C170.339 522.81 172.823 525.3 172.823 528.367C172.823 531.438 170.339 533.924 167.275 533.924ZM161.727 543.186C161.727 546.257 164.211 548.742 167.275 548.742C170.339 548.742 172.823 546.257 172.823 543.186C172.823 540.118 170.339 537.629 167.275 537.629C164.211 537.629 161.727 540.118 161.727 543.186ZM167.275 563.561C164.211 563.561 161.727 561.075 161.727 558.004C161.727 554.937 164.211 552.447 167.275 552.447C170.339 552.447 172.823 554.937 172.823 558.004C172.823 561.075 170.339 563.561 167.275 563.561ZM161.727 572.822C161.727 575.894 164.211 578.379 167.275 578.379C170.339 578.379 172.823 575.894 172.823 572.822C172.823 569.755 170.339 567.266 167.275 567.266C164.211 567.266 161.727 569.755 161.727 572.822Z" fill="white" stroke="#C4C4C4" stroke-width="2" mask="url(#path-1-inside-1_133_4873)"/>
</svg>
